<?xml version="1.0" encoding="utf-8"?>
<!-- Generator: Adobe Illustrator 20.0.0, SVG Export Plug-In . SVG Version: 6.00 Build 0)  -->
<svg version="1.1" id="score-title" xmlns="http://www.w3.org/2000/svg" xmlns:xlink="http://www.w3.org/1999/xlink" x="0px"
	 y="0px" viewBox="0 0 226 63" style="enable-background:new 0 0 226 63;" xml:space="preserve">
<style type="text/css">
	.st0{fill:#32A29F;}
	.st1{fill:none;stroke:#FFFFFF;stroke-width:5;stroke-linejoin:round;}
	.st2{enable-background:new    ;}
	.st3{fill:#FFFFFF;}
</style>
<g>
	<circle id="橢圓_1421" class="st0" cx="31.8" cy="31.5" r="27.3"/>
</g>
<g>
	<circle id="橢圓_1421_1_" class="st1" cx="31.8" cy="31.5" r="27.3"/>
</g>
<g transform="translate(-867.5 -7790.5)">
	<path id="橢圓_1421_拷貝" class="st0" d="M953.7,7795c14.9,0.2,26.8,12.4,26.7,27.3s-12.4,26.8-27.3,26.7
		c-14.8-0.2-26.7-12.2-26.7-27C926.4,7807,938.7,7794.9,953.7,7795z"/>
</g>
<g transform="translate(-867.5 -7790.5)">
	<path id="橢圓_1421_拷貝_1_" class="st1" d="M86.2,4.5c14.9,0.2,26.8,12.4,26.7,27.3s-12.4,26.8-27.3,26.7
		c-14.8-0.2-26.7-12.2-26.7-27C58.9,16.5,71.2,4.4,86.2,4.5z"/>
</g>
<g transform="translate(-867.5 -7790.5)">
	<path id="橢圓_1421_拷貝_2" class="st0" d="M1007.2,7795c14.9,0.2,26.8,12.4,26.7,27.3c-0.2,14.9-12.4,26.8-27.3,26.7
		c-14.8-0.2-26.7-12.2-26.7-27C980,7807,992.2,7794.9,1007.2,7795C1007.2,7795,1007.2,7795,1007.2,7795z"/>
</g>
<g transform="translate(-867.5 -7790.5)">
	<path id="橢圓_1421_拷貝_2_1_" class="st1" d="M139.7,4.5c14.9,0.2,26.8,12.4,26.7,27.3c-0.2,14.9-12.4,26.8-27.3,26.7
		c-14.8-0.2-26.7-12.2-26.7-27C112.5,16.5,124.7,4.4,139.7,4.5C139.7,4.5,139.7,4.5,139.7,4.5z"/>
</g>
<g transform="translate(-867.5 -7790.5)">
	<path id="橢圓_1421_拷貝_3" class="st0" d="M1061.7,7795c14.9,0.2,26.8,12.4,26.6,27.3c-0.2,14.9-12.4,26.8-27.3,26.6
		c-14.8-0.2-26.6-12.2-26.7-27C1034.4,7807,1046.6,7794.9,1061.7,7795C1061.7,7795,1061.7,7795,1061.7,7795z"/>
</g>
<g transform="translate(-867.5 -7790.5)">
	<path id="橢圓_1421_拷貝_3_1_" class="st1" d="M194.2,4.5c14.9,0.2,26.8,12.4,26.6,27.3c-0.2,14.9-12.4,26.8-27.3,26.6
		c-14.8-0.2-26.6-12.2-26.7-27C166.9,16.5,179.1,4.4,194.2,4.5C194.2,4.5,194.2,4.5,194.2,4.5z"/>
</g>
<g class="st2">
	<path class="st3" d="M28.3,23.9H14.7v-3.4h5.8c-0.5-1.4-1.4-3.2-2.1-4.5l3.1-1.5c0.9,1.5,1.9,3.5,2.5,4.8l-2.2,1.3h6.6V23.9z
		 M16.2,28.8v-3.2h10.6v3.2H16.2z M26.8,33.6H16.2v-3.2h10.6V33.6z M26.8,46.2h-7.2v1.5h-3.4V35.3h10.6V46.2z M19.6,38.7v4h3.8v-4
		H19.6z M48.3,36h-8v12.2h-4.2V36h-8v-4.1h8V20.4h-6.8v-4h18.3v4h-7.3v11.6h8V36z M33.1,21.9c0.8,2.6,1.5,6,1.7,8.2L31.2,31
		c-0.1-2.3-0.7-5.7-1.4-8.4L33.1,21.9z M41.5,30.1c0.8-2.3,1.6-6,2-8.6l4.1,0.8c-0.9,3-1.9,6.4-2.8,8.5L41.5,30.1z"/>
	<path class="st3" d="M92.7,15.1c1.7,5.3,5.4,10.4,10.4,13c-0.9,0.9-2.4,2.7-3,4c-0.9-0.6-1.9-1.3-2.8-2.1
		c-0.4,10.6-0.8,14.8-2.1,16.2c-0.9,1.2-1.9,1.5-3.3,1.7c-1.2,0.2-3.3,0.2-5.5,0.1c-0.1-1.3-0.7-3.1-1.4-4.3c2,0.1,3.9,0.2,4.8,0.2
		c0.7,0,1.1-0.1,1.4-0.5c0.7-0.8,1.1-4,1.4-11.5h-7.1c-0.9,6.9-3.3,13.1-12.6,16.6c-0.5-1.2-1.8-3-2.9-4c8.2-2.6,10.1-7.4,10.8-12.6
		h-6.1v-2.4c-0.9,0.9-1.8,1.8-2.7,2.6c-0.8-0.9-2.6-2.4-3.6-3.2c4.1-2.9,7.3-7.7,9-13.1l4.5,1.1c-1.3,4-3.3,7.8-5.7,10.8H95
		c-2.4-2.6-4.2-5.6-5.5-8.6h-5.8v-4H92.7z"/>
	<path class="st3" d="M133.9,36.2c-0.4-1-1.1-2.6-1.8-4v16h-3.9v-15c-1,3.2-2.1,6.2-3.4,8.3c-0.4-1.3-1.4-3.2-2-4.4
		c2-2.8,3.9-7.8,4.9-11.8h-4v-4h4.5v-6.7h3.9v6.7h3.5v4h-3.5v1.6c0.9,1.2,3.7,5.4,4.3,6.4L133.9,36.2z M142.6,40.8
		c-1.2,2.5-3.3,5.1-5.1,6.8c-0.7-0.6-2.3-1.7-3.2-2.3c1.8-1.4,3.6-3.5,4.6-5.5L142.6,40.8z M141.9,19.3h-6.1v-3.4h20.6v3.4h-6.4v1.6
		h5.8v8.7h-19.3v-8.7h5.4V19.3z M147.9,39v9.2H144V39h-8.2v-3.3h20.6V39H147.9z M138,34.2v-3.2h16.3v3.2H138z M139.9,26.7h2V24h-2
		V26.7z M146.8,19.3h-1.9v1.6h1.9V19.3z M144.9,26.7h1.9V24h-1.9V26.7z M152.3,39.8c1.7,1.7,3.6,4,4.5,5.6l-3.3,1.9
		c-0.8-1.6-2.7-4.1-4.3-5.9L152.3,39.8z M149.9,24v2.7h2.1V24H149.9z"/>
	<path class="st3" d="M211,42h-14.5v6.2h-4.5V42h-14v-3.9h14v-1.5h-3.2V25.3c-0.3,0.3-0.6,0.5-0.9,0.8c-0.7-0.6-2-1.8-3-2.4l-2,2.8
		c-1.2-0.9-3.7-2.2-5.6-3l2.2-2.9c1.6,0.6,4,1.6,5.3,2.4c2.8-2.1,5.5-5.4,7-8.7l4.1,1.2c-0.4,0.9-0.9,1.8-1.4,2.7h3.6
		c-0.3-0.8-0.7-1.7-1-2.4l4.1-1.1c0.5,1.1,1.2,2.4,1.6,3.5h6.6v3.2h-7.2v1.8h5.8v2.6h-5.8v1.6h5.8v2.6h-5.8V32h7.8v3.3h-17v0.6h3.4
		v2.2H211V42z M187.9,29.4c-2,2.5-4.4,5.2-6.6,7.7l-3-3.2c2-1.7,4.9-4.5,7.4-7.3L187.9,29.4z M185.6,20.6c-1.2-1-3.7-2.3-5.5-3.1
		l2.2-2.9c1.8,0.7,4.3,1.9,5.6,2.8L185.6,20.6z M198.2,21.5h-5.1v1.8h5.1V21.5z M198.2,25.9h-5.1v1.6h5.1V25.9z M198.2,30.1h-5.1V32
		h5.1V30.1z"/>
</g>
</svg>
