<?xml version="1.0" encoding="utf-8"?>
<!-- Generator: Adobe Illustrator 22.1.0, SVG Export Plug-In . SVG Version: 6.00 Build 0)  -->
<svg version="1.1" id="圖層_1" xmlns="http://www.w3.org/2000/svg" xmlns:xlink="http://www.w3.org/1999/xlink" x="0px" y="0px"
	 viewBox="0 0 111 23.4" style="enable-background:new 0 0 111 23.4;" xml:space="preserve">
<style type="text/css">
	.st0{fill:#FFFFFF;}
</style>
<g>
	<path class="st0" d="M7.9,11.8c-0.4,1.8-1,3.7-1.6,5.2c0.4,0.2,0.9,0.6,1.6,1c1.4,0.9,3.2,1,5.6,1c2.6,0,5.8-0.2,8.1-0.4
		c-0.2,0.4-0.4,1.1-0.5,1.5c-1.5,0.1-5.3,0.2-7.7,0.2c-2.6,0-4.4-0.2-5.8-1.1c-0.8-0.5-1.5-1.2-2-1.2c-0.4,0-1.1,1.3-1.7,2.5l-1-1.3
		c0.7-1,1.4-1.8,2-2.2c0.6-1.1,1.1-2.7,1.4-4.2H3.7c0.6-1.2,1.2-2.9,1.7-4.5H3.2V7.1h4.1c-0.5,1.4-1.1,3.1-1.7,4.5H7l0.3-0.1
		L7.9,11.8z M5.2,6.1C5,5.2,4.5,3.8,4.2,2.8l1.3-0.4c0.4,1,0.8,2.4,1.1,3.2L5.2,6.1z M15.1,13.2c0.6,0.3,1.3,0.7,1.9,1
		c0.7-0.4,1.4-1,2-1.5h-4.4c-0.5,0.4-1.1,0.9-1.7,1.3v2.6l3.3-0.8c0,0.3,0.1,0.8,0.1,1c-4,1.1-4.5,1.3-4.9,1.5
		c0-0.3-0.2-0.8-0.4-1.1c0.3-0.1,0.7-0.3,0.7-1v-1.6c-1,0.4-2,0.8-2.9,1.1c-0.2-0.3-0.6-0.8-0.8-1.1c1.7-0.4,3.6-1.1,4.9-1.9H9.7
		V8.6h9.5v4l0.3-0.2l1.1,0.7c-0.8,0.6-1.7,1.2-2.6,1.7c1.2,0.7,2.3,1.4,3,2l-0.9,0.9c-1.2-1.1-3.8-2.7-5.8-3.8L15.1,13.2z M20.9,7.5
		H8.1V6.4h5.6V5H9.2V3.8h4.5V2.3h1.4v1.5h4.6V5h-4.6v1.4h5.8V7.5z M17.8,9.7h-6.7v2h6.7V9.7z"/>
	<path class="st0" d="M29.2,7.1c-0.7,3.8-1.7,7.1-3.3,9.5c-0.3-0.2-0.9-0.7-1.2-0.9c1.5-2.1,2.5-5.2,3.1-8.7h-2.3V5.7H28
		c0.2-1.1,0.3-2.3,0.4-3.4l1.5,0.1c-0.1,1.1-0.3,2.2-0.4,3.3h4.1v1.4H29.2z M32.2,13.3c0.6,1.9,1.3,4.4,1.6,6.1l-1.2,0.4
		c-0.1-0.4-0.2-1-0.3-1.5c-4.2,0.8-4.8,0.9-5.2,1.2c-0.1-0.3-0.3-1-0.5-1.3c0.4-0.1,0.7-0.7,1.1-1.6c0.4-0.8,1.7-4.2,2.3-7.2
		l1.4,0.4c-0.7,2.8-1.8,5.7-2.9,8l3.4-0.6c-0.3-1.2-0.6-2.4-1-3.5L32.2,13.3z M43.1,19.5h-7.2v1h-1.3V8.6c-0.5,0.8-0.9,1.5-1.4,2.1
		c-0.2-0.3-0.6-0.9-0.9-1.1c1.5-1.8,2.8-4.5,3.6-7.2l1.3,0.3c-0.4,1.1-0.8,2.3-1.3,3.4h7v1.3h-2.7v2.7h2.7v1.3h-2.7v2.7h2.7v1.3
		h-2.7v2.8h3V19.5z M35.9,7.4v2.7h2.8V7.4H35.9z M38.8,11.4h-2.8v2.7h2.8V11.4z M35.9,18.2h2.8v-2.8h-2.8V18.2z M39.2,6
		c-0.2-0.8-0.8-2.1-1.4-3l1.3-0.4c0.6,0.9,1.2,2.1,1.4,2.9L39.2,6z"/>
	<path class="st0" d="M62.2,14.7c-1,1.4-2.4,2.5-4.1,3.3c2.1,0.6,4.4,1,7,1.1c-0.3,0.4-0.7,1-0.8,1.4c-2.9-0.3-5.7-0.8-8-1.7
		c-2.4,0.9-5.3,1.4-8.1,1.8c-0.1-0.3-0.5-1-0.8-1.2c2.5-0.2,4.9-0.6,7.1-1.3c-1.2-0.5-2.2-1.2-3.1-1.9c-0.9,0.5-1.8,1-2.7,1.4
		c-0.2-0.3-0.7-0.8-1-1c0.9-0.4,1.9-0.8,2.8-1.3c-0.5-0.5-1-1-1.4-1.6l1.2-0.5c0.4,0.5,0.8,1,1.3,1.4c0.9-0.6,1.7-1.3,2.3-2
		c-0.8-0.2-1.1-0.6-1.1-1.5V9.3h1.4v1.9c0,0.4,0.1,0.5,1,0.5H58c0.6,0,0.7-0.2,0.8-1.3c0.3,0.2,0.8,0.4,1.2,0.4
		c-0.1,1.6-0.5,2-1.8,2H55l0.3,0.1c-0.3,0.4-0.7,0.8-1.1,1.2H61l0.3-0.1L62.2,14.7z M49.2,10.4h-1.4V6.9h3.6c-0.2-0.6-0.7-1.4-1.2-2
		l1-0.4c-0.9,0-1.7,0.1-2.5,0.1c0-0.3-0.2-0.8-0.3-1.1c4.9-0.1,10.9-0.5,14.1-1.2l1,1c-2.1,0.4-4.8,0.7-7.7,0.9
		c0.5,0.7,1,1.6,1.1,2.2l-1.3,0.5c-0.1-0.6-0.6-1.6-1.1-2.2l1.1-0.4c-1.4,0.1-2.8,0.2-4.2,0.3c0.6,0.6,1.1,1.5,1.3,2.1L52,6.9h7.4
		C60,6.1,60.8,4.9,61.3,4l1.4,0.5c-0.5,0.8-1.2,1.7-1.7,2.4h3.6v3.6h-1.5V8.1h-7.6c0.9,0.4,2,1,2.6,1.5l-0.8,0.9
		c-0.6-0.5-1.9-1.3-3-1.8l0.6-0.6h-5.7V10.4z M48.5,12.2c1.1-0.6,1.8-1.8,2.2-3l1.2,0.5c-0.4,1.2-1.1,2.5-2.3,3.3L48.5,12.2z
		 M52.5,15.5c1.1,0.8,2.4,1.4,3.9,2c1.4-0.6,2.6-1.3,3.5-2.2h-7.1L52.5,15.5z M60.9,9.1c1.2,0.9,2.5,2.2,3.1,3.1L63,12.9
		c-0.6-0.9-1.9-2.2-3.1-3.2L60.9,9.1z"/>
	<path class="st0" d="M87.1,18.5v1.4H69.4v-1.4h8.1v-5.1h-5.9V12h5.9V7.6h-4.7c-0.6,1.3-1.3,2.4-2.1,3.3c-0.3-0.2-0.9-0.7-1.3-0.9
		C71,8.2,72.2,5.5,73,2.6l1.5,0.3c-0.3,1.1-0.7,2.2-1.1,3.2h4.1V2.3H79v3.8h7.2v1.5H79V12h6.4v1.4H79v5.1H87.1z"/>
	<path class="st0" d="M94.8,11.2c-0.8-0.6-2.5-1.5-3.7-2.2L91.9,8c1.2,0.6,2.8,1.5,3.7,2L94.8,11.2z M91.6,19.3
		c1.1-1.5,2.6-4.1,3.8-6.4l1.1,1c-1,2.1-2.4,4.6-3.6,6.4L91.6,19.3z M95.8,5.8c-0.8-0.6-2.5-1.5-3.7-2.2l0.8-1.1
		c1.2,0.6,2.9,1.5,3.7,2.1L95.8,5.8z M103.8,9.5v3.3h4.2v7.6h-1.4v-0.7h-7.1v0.8H98v-7.7h4.3V9.5h-5.8V8.1h5.8V4.9
		c-1.5,0.2-3,0.4-4.4,0.5c-0.1-0.4-0.3-0.9-0.4-1.3c3.4-0.4,7.5-1,9.7-1.8l1.2,1.2c-1.3,0.4-2.9,0.8-4.6,1.1v3.5h5.5v1.4H103.8z
		 M106.5,14.2h-7.1v4.1h7.1V14.2z"/>
</g>
</svg>
