<?xml version="1.0" encoding="utf-8"?>
<!-- Generator: Adobe Illustrator 20.0.0, SVG Export Plug-In . SVG Version: 6.00 Build 0)  -->
<svg version="1.1" id="圖層_1" xmlns="http://www.w3.org/2000/svg" xmlns:xlink="http://www.w3.org/1999/xlink" x="0px" y="0px"
	 viewBox="0 0 259.5 259.5" style="enable-background:new 0 0 259.5 259.5;" xml:space="preserve">
<style type="text/css">
	.st0{fill:#FFFF00;}
</style>
<path class="st0" d="M226.4,4H34C17.7,4,4.5,17.2,4.5,33.5v192.5c0,16.2,13.2,29.5,29.5,29.5h192.5c16.2,0,29.5-13.2,29.5-29.5V33.5
	C255.9,17.2,242.7,4,226.4,4z M236.3,225.9c0,5.4-4.4,9.8-9.8,9.8h-57.9v-71.7h31.4l3.7-30.4h-35.1v-32.9c0-8.4,6.3-14.7,14.7-14.7
	h22.1V57.5c-5.8-0.8-17-2-22.1-2c-11.5,0-22.9,4.8-31.5,13.3c-8.8,8.7-13.7,20-13.7,32v32.8h-31.9v30.4h31.9v71.7H34
	c-5.4,0-9.8-4.4-9.8-9.8V33.5c0-5.4,4.4-9.8,9.8-9.8h192.5c5.4,0,9.8,4.4,9.8,9.8V225.9z"/>
</svg>
