<svg id="圖層_1" data-name="圖層 1" xmlns="http://www.w3.org/2000/svg" viewBox="0 0 25.6 22.4"><title>film</title><path d="M25,10.6l-4.8,3.2a3.17,3.17,0,0,0-1.12-2.42,5.58,5.58,0,1,0-6.79-.78H9.35A4.79,4.79,0,1,0,1,7.4,4.76,4.76,0,0,0,2.66,11,3.19,3.19,0,0,0,1,13.8v6.4a3.2,3.2,0,0,0,3.2,3.2H17a3.2,3.2,0,0,0,3.2-3.2L25,23.4a1.6,1.6,0,0,0,1.6-1.6V12.2A1.6,1.6,0,0,0,25,10.6Zm-19.2,0A3.2,3.2,0,1,1,9,7.4a3.2,3.2,0,0,1-3.2,3.2Zm10.4,0a4,4,0,1,1,4-4,4,4,0,0,1-4,4Zm0,0" transform="translate(-1 -1)" style="fill:#fff;fill-rule:evenodd"/></svg>