<?xml version="1.0" encoding="utf-8"?>
<!-- Generator: Adobe Illustrator 20.0.0, SVG Export Plug-In . SVG Version: 6.00 Build 0)  -->
<svg version="1.1" id="menu" xmlns="http://www.w3.org/2000/svg" xmlns:xlink="http://www.w3.org/1999/xlink" x="0px" y="0px"
	 viewBox="0 0 84 134" style="enable-background:new 0 0 84 134;" xml:space="preserve">
<style type="text/css">
	.st0{fill:#483607;}
	.st1{enable-background:new    ;}
	.st2{fill:#FFFF00;}
</style>
<path id="圓角矩形_1" class="st0" d="M15,0l54,7c8.3,0,15,6.7,15,15l0,0v90c0,8.3-6.7,15-15,15l0,0l-54,7c-8.3,0-15-6.7-15-15
	V15C0,6.7,6.7,0,15,0L15,0z"/>
<g class="st1">
	<path class="st2" d="M50.2,40.6c0.4,0,0.4-0.5,0.1-0.6l-6.5-3.1c-0.2-0.1-0.3-0.3-0.3-0.6V34c0-0.4,0.1-0.6,0.3-0.7l6.6-3.1
		c0.3-0.1,0.3-0.6-0.1-0.6H38.1c-0.3,0-0.4-0.2-0.4-0.6v-3.1c0-0.4,0.1-0.6,0.4-0.6h22c0.3,0,0.4,0.2,0.4,0.6v3.2
		c0,0.3-0.1,0.5-0.3,0.6l-10.6,5c-0.4,0.2-0.4,0.6,0,0.8l10.6,4.9c0.2,0.1,0.3,0.3,0.3,0.6v3.1c0,0.4-0.1,0.6-0.4,0.6h-22
		c-0.3,0-0.4-0.2-0.4-0.6v-3.1c0-0.4,0.1-0.6,0.4-0.6H50.2z"/>
	<path class="st2" d="M38.1,64.6c-0.3,0-0.4-0.2-0.4-0.6V52.9c0-0.4,0.1-0.6,0.4-0.6h22c0.3,0,0.4,0.2,0.4,0.6V64
		c0,0.4-0.1,0.6-0.4,0.6h-2c-0.3,0-0.4-0.2-0.4-0.6v-6.8c0-0.4-0.2-0.6-0.4-0.6h-6.3c-0.3,0-0.4,0.2-0.4,0.6v3.1
		c0,0.4-0.1,0.6-0.4,0.6h-2c-0.3,0-0.4-0.2-0.4-0.6v-3.1c0-0.4-0.1-0.6-0.4-0.6H41c-0.3,0-0.4,0.2-0.4,0.6V64c0,0.4-0.2,0.6-0.4,0.6
		H38.1z"/>
	<path class="st2" d="M38.1,75.9c-0.3,0-0.4-0.2-0.4-0.6v-3.1c0-0.4,0.1-0.6,0.4-0.6h22c0.3,0,0.4,0.2,0.4,0.6v3.1
		c0,0.4-0.1,0.6-0.3,0.7l-11.5,4.5c-0.2,0.1-0.2,0.6,0.1,0.6h11.3c0.3,0,0.4,0.2,0.4,0.6v3.1c0,0.4-0.1,0.6-0.4,0.6h-22
		c-0.3,0-0.4-0.2-0.4-0.6v-3.2c0-0.4,0.1-0.6,0.3-0.7l11.4-4.5c0.3-0.1,0.2-0.6-0.1-0.6H38.1z"/>
	<path class="st2" d="M60.5,105.1c0,0.4-0.1,0.6-0.4,0.6H39.4c-0.2,0-0.4-0.1-0.5-0.3l-1-1.5c-0.2-0.2-0.2-0.5-0.2-0.7v-7.7
		c0-0.3,0.1-0.5,0.2-0.7l1-1.5c0.1-0.2,0.3-0.3,0.5-0.3h20.7c0.3,0,0.4,0.2,0.4,0.6v3.1c0,0.4-0.1,0.6-0.4,0.6H41.2
		c-0.2,0-0.3,0-0.5,0.2c-0.1,0.2-0.2,0.4-0.2,0.7v2.4c0,0.3,0,0.5,0.2,0.7c0.1,0.2,0.3,0.2,0.5,0.2h18.9c0.3,0,0.4,0.2,0.4,0.6
		V105.1z"/>
</g>
</svg>
