<?xml version="1.0" encoding="utf-8"?>
<!-- Generator: Adobe Illustrator 20.0.0, SVG Export Plug-In . SVG Version: 6.00 Build 0)  -->
<svg version="1.1" id="圖層_1" xmlns="http://www.w3.org/2000/svg" xmlns:xlink="http://www.w3.org/1999/xlink" x="0px" y="0px"
	 viewBox="0 0 259.5 259.5" style="enable-background:new 0 0 259.5 259.5;" xml:space="preserve">
<style type="text/css">
	.st0{fill:#FFFF00;}
</style>
<g>
	<g>
		<path class="st0" d="M142.2,157.8h-16.7c-6.1,0-11-4.9-11-11s4.9-11,11-11h29.4c4,0,7.3-3.3,7.3-7.3s-3.3-7.3-7.3-7.3h-13.8v-10.1
			c0-4-3.3-7.3-7.3-7.3s-7.3,3.3-7.3,7.3v10.1h-1c-14.1,0-25.6,11.5-25.6,25.6s11.5,25.6,25.6,25.6h16.7c6.1,0,11,4.9,11,11
			c0,6.1-4.9,11-11,11h-29.9c-4,0-7.3,3.3-7.3,7.3c0,4,3.3,7.3,7.3,7.3h14.3v10.4c0,4,3.3,7.3,7.3,7.3c4,0,7.3-3.3,7.3-7.3V209h1.2
			c0.1,0,0.1,0,0.2,0c14-0.2,25.2-11.6,25.2-25.6C167.7,169.3,156.2,157.8,142.2,157.8z"/>
		<path class="st0" d="M231.5,148c-6.7-15.4-16-30.4-27.6-44.3c-14.1-17-28.2-28.4-35.4-33.7l27.1-50.3c1.3-2.5,0.9-5.6-1.2-7.5
			c-7-6.9-14.5-10.2-22.8-10.2C164,1.9,157,4.8,151,7.3c-4.8,2-9.3,3.9-13,3.9c-1.1,0-2.1-0.2-3-0.5c-12.7-4.6-22.4-7.5-31.8-7.5
			c-11.9,0-22.1,4.8-32,15c-2.1,2.1-2.4,5.5-0.7,8l29.2,44.2c-7.2,5.4-21.1,16.6-34.9,33.3c-11.6,14-20.9,28.9-27.6,44.3
			c-8.4,19.4-12.7,39.7-12.7,60.2c0,27.3,22.2,49.5,49.5,49.5h120.7c27.3,0,49.5-22.2,49.5-49.5C244.1,187.6,239.9,167.4,231.5,148z
			 M87.2,26c5.8-5,11.3-7.2,18-7.2c7.1,0,15.1,2.4,25.7,6.3c2.2,0.8,4.5,1.2,6.9,1.2c5.8,0,11.4-2.3,16.8-4.5
			c5.1-2.1,10-4.2,14.8-4.2c2.3,0,5.5,0.4,9.6,3.3l-24,44.6h-41.8L87.2,26z M191.1,240.9H77.7c-19,0-34.5-15.5-34.5-34.5
			c0-32,11.7-62.4,34.8-90.3c14.6-17.6,29.4-28.6,33.9-31.8h44.9c4.5,3.1,19.3,14.1,33.9,31.8c23.1,27.9,34.8,58.2,34.8,90.3
			C225.6,225.4,210.1,240.9,191.1,240.9z"/>
	</g>
</g>
</svg>
