<?xml version="1.0" encoding="utf-8"?>
<!-- Generator: Adobe Illustrator 22.1.0, SVG Export Plug-In . SVG Version: 6.00 Build 0)  -->
<svg version="1.1" id="圖層_1" xmlns="http://www.w3.org/2000/svg" xmlns:xlink="http://www.w3.org/1999/xlink" x="0px" y="0px"
	 viewBox="0 0 90.4 23.4" style="enable-background:new 0 0 90.4 23.4;" xml:space="preserve">
<style type="text/css">
	.st0{fill:#FFFFFF;}
</style>
<g>
	<path class="st0" d="M7.7,11.4c-0.8-0.6-2.5-1.5-3.7-2.2l0.8-1.1c1.2,0.6,2.8,1.5,3.7,2L7.7,11.4z M4.5,19.5
		c1.1-1.5,2.6-4.1,3.8-6.4l1.1,1c-1,2.1-2.4,4.6-3.6,6.4L4.5,19.5z M8.7,6C7.9,5.4,6.3,4.4,5,3.8l0.8-1.1c1.2,0.6,2.9,1.5,3.7,2.1
		L8.7,6z M16.7,9.7V13h4.2v7.6h-1.4v-0.7h-7.1v0.8H11V13h4.3V9.7H9.6V8.3h5.8V5c-1.5,0.2-3,0.4-4.4,0.5c-0.1-0.4-0.3-0.9-0.4-1.3
		C14,4,18,3.3,20.2,2.5l1.2,1.2c-1.3,0.4-2.9,0.8-4.6,1.1v3.5h5.5v1.4H16.7z M19.5,14.4h-7.1v4.1h7.1V14.4z"/>
	<path class="st0" d="M43.9,7.1c0,0,0,0.6,0,0.8c-0.2,8.4-0.4,11.2-1.1,12c-0.3,0.5-0.7,0.7-1.3,0.7c-0.6,0.1-1.5,0.1-2.4,0
		c0-0.4-0.2-1-0.4-1.4c1,0.1,1.8,0.1,2.2,0.1c0.3,0,0.5-0.1,0.7-0.3c0.5-0.6,0.7-3.2,0.9-10.5h-2.9c-0.2,5.3-1.2,9.7-4.7,12.3
		c-0.2-0.3-0.7-0.8-1.1-1.1c0.3-0.2,0.6-0.5,0.9-0.7c-3,0.4-6.1,0.7-8.4,0.9l-0.2-1.3c1.2-0.1,2.7-0.2,4.3-0.4v-1.7h-3.8v-1.1h3.8
		v-1.2h-3.7V8.3h3.7V7h-4.3V5.9h4.3V4.5c-1.3,0.1-2.6,0.2-3.8,0.2c-0.1-0.3-0.2-0.8-0.4-1.1c3-0.2,6.6-0.5,8.6-1l0.7,1.1
		c-1.1,0.2-2.4,0.4-3.9,0.6v1.5H36V7h-4.2v1.3h3.9v5.9h-3.9v1.2h3.9v1.1h-3.9v1.6c1.3-0.1,2.7-0.3,4-0.4v0.1
		c1.7-2.4,2.3-5.6,2.4-9.3h-2.3V7.1h2.4c0-1.4,0-2.9,0-4.4h1.4c0,1.5,0,3,0,4.4H43.9z M27.9,10.7h2.5V9.3h-2.5V10.7z M30.4,13.2
		v-1.5h-2.5v1.5H30.4z M31.7,9.3v1.4h2.6V9.3H31.7z M34.4,11.7h-2.6v1.5h2.6V11.7z"/>
	<path class="st0" d="M58.7,16.4c2.5,0.9,5.9,2.3,7.7,3.1l-0.7,1.2c-1.8-0.9-5.3-2.4-7.9-3.4l0.6-0.9h-0.9c-0.8,1.7-2.9,3.4-8.6,4.4
		c-0.2-0.3-0.5-0.9-0.8-1.2c4.6-0.8,6.7-2,7.7-3.2h-7.5v-1.3h8.1c0.1-0.3,0.1-0.5,0.1-0.8v-1.2h1.5v1.3c0,0.2,0,0.5,0,0.7h4.1
		c-0.4-0.4-1.1-0.9-1.6-1.3l0.6-0.5h-0.7c-0.1-0.4-0.2-0.8-0.4-1.2c0.9,0,1.7,0,1.9,0c0.3,0,0.3-0.1,0.3-0.3v-2h-4.7
		c0.8,0.5,1.7,1.2,2.1,1.8l-1,0.8c-0.4-0.6-1.4-1.4-2.2-1.9l0.8-0.7h-2.4V8.9H62V7.4h1.4v1.5h2.5v1.1h-2.5v2c0,0.7-0.1,1-0.7,1.2
		c-0.3,0.1-0.9,0.2-1.6,0.2c0.6,0.4,1.4,1,1.8,1.4l-0.4,0.4h3.7v1.3H58.7z M51,10c0,1-0.3,2.8-1.7,3.9c-0.3-0.2-0.8-0.5-1.1-0.7
		c1.3-1,1.5-2.5,1.5-3.3V9.8h-1.4V8.6h4.4V7.1h-3.4V3h1.3v2.9h2.2V2.5H54v11.3h-1.4v-4H51V10z M65.3,3.9c-1.8,3.1-5.9,4.4-10,5
		c-0.1-0.3-0.4-0.7-0.6-0.9c2-0.2,3.9-0.6,5.6-1.3C59.7,6,59,5.3,58.3,4.7c-0.8,0.4-1.7,0.7-2.7,1c-0.2-0.3-0.6-0.7-0.8-0.9
		c2.4-0.6,4.3-1.5,5.4-2.4l1.3,0.3c-0.3,0.3-0.6,0.5-1,0.8h3.7l0.3-0.1L65.3,3.9z M58.7,6.7c-1.2,0.1-2.3,0.2-3.3,0.3l-0.2-0.9
		c1-0.1,2.1-0.1,3.5-0.2L58.7,6.7z M59.4,4.4c0.7,0.5,1.3,1.1,1.8,1.7c0.9-0.5,1.6-1,2.2-1.7H59.4z"/>
	<path class="st0" d="M79.9,9.8v2.7h7v1.4h-7v4.9h7.9v1.4H70.6v-1.4h7.8v-4.9h-6.9v-1.4h6.9V9.8H74V8.7c-1,0.6-2.1,1.1-3.2,1.5
		c-0.2-0.4-0.6-1-1-1.4c3.7-1.2,7.4-3.6,9.3-6.5l1.4,0.6c-0.1,0.2-0.3,0.5-0.5,0.7c2,2.1,5.5,4.2,8.5,5.2c-0.4,0.3-0.8,0.9-1,1.3
		c-1-0.4-2.1-0.9-3.2-1.5v1.2H79.9z M74.4,14.3c0.8,1.1,1.6,2.6,1.9,3.6L75,18.4c-0.3-0.9-1.1-2.5-1.8-3.6L74.4,14.3z M84,8.4
		c-1.8-1.1-3.6-2.4-4.9-3.8c-1.3,1.4-2.9,2.7-4.7,3.8H84z M81.7,18c0.7-1,1.6-2.6,2.1-3.7l1.4,0.5c-0.7,1.3-1.6,2.7-2.4,3.6L81.7,18
		z"/>
</g>
</svg>
