<?xml version="1.0" encoding="utf-8"?>
<!-- Generator: Adobe Illustrator 22.1.0, SVG Export Plug-In . SVG Version: 6.00 Build 0)  -->
<svg version="1.1" id="圖層_1" xmlns="http://www.w3.org/2000/svg" xmlns:xlink="http://www.w3.org/1999/xlink" x="0px" y="0px"
	 viewBox="0 0 90.4 23.4" style="enable-background:new 0 0 90.4 23.4;" xml:space="preserve">
<style type="text/css">
	.st0{fill:#FFFFFF;}
</style>
<g>
	<path class="st0" d="M22.6,8.7h-1.5v-3H7.5v3H6.1V4.4h3.2C9,3.7,8.3,2.7,7.7,2L9,1.5c0.7,0.7,1.4,1.7,1.7,2.3L9.5,4.4h4.2V1.3h1.5
		v3.1h7.5V8.7z M21.4,17.1c0,0.8-0.2,1.2-0.8,1.4c-0.6,0.2-1.6,0.2-3.2,0.2c-0.1-0.4-0.3-1-0.5-1.4c1.2,0,2.3,0,2.6,0
		c0.3,0,0.4-0.1,0.4-0.3v-2.8h-4.6v5.3h-1.5v-5.3H8.8v4.4H7.4v-5.7h6.4v-1.6H9.1V7.1h10.4v4.2h-4.3v1.6h6.1V17.1z M10.6,10.2h7.5v-2
		h-7.5V10.2z M21,2c-0.7,0.9-1.4,1.8-2,2.4l-1.2-0.5c0.6-0.7,1.3-1.7,1.7-2.4L21,2z"/>
	<path class="st0" d="M43,18c0.8,0,1-0.4,1-2.8c0.3,0.3,1,0.5,1.4,0.6c-0.2,2.9-0.6,3.6-2.3,3.6h-3.2c-1.9,0-2.4-0.4-2.4-2.1v-4
		h-3.3c-0.5,3.2-1.8,5.2-6.3,6.2c-0.1-0.4-0.5-1-0.8-1.3c4.1-0.8,5.2-2.4,5.6-4.9H30V2h12.6v11.3h-3.5v4c0,0.6,0.2,0.7,1,0.7H43z
		 M31.5,5.4h9.6v-2h-9.6V5.4z M31.5,8.7h9.6V6.6h-9.6V8.7z M31.5,12h9.6V9.9h-9.6V12z"/>
	<path class="st0" d="M64.7,21.3c-0.5,0.2-1.4,0.4-2.4,0.4c-3.1,0-5.1-1.5-6.1-3.5c-3.7-0.4-6.2-3.3-6.2-7.6c0-4.7,2.9-7.5,7.1-7.5
		c4.1,0,7.1,2.8,7.1,7.5c0,4.2-2.5,7.1-6,7.5c0.7,1.3,2.4,2,4.3,2c0.8,0,1.3-0.1,1.8-0.3L64.7,21.3z M62.4,10.6
		c0-3.7-2.1-5.9-5.2-5.9C54,4.7,52,7,52,10.6c0,3.8,2.1,6.1,5.2,6.1C60.3,16.7,62.4,14.4,62.4,10.6z"/>
	<path class="st0" d="M79.2,13.5h-6.2L71.3,18h-1.9l5.6-14.7h2.3L82.8,18h-2L79.2,13.5z M78.7,12.1l-0.9-2.3
		c-0.6-1.7-1.2-3.3-1.8-4.9H76c-0.6,1.7-1.2,3.3-1.8,4.9l-0.9,2.3H78.7z"/>
</g>
</svg>
