<?xml version="1.0" encoding="utf-8"?>
<!-- Generator: Adobe Illustrator 20.0.0, SVG Export Plug-In . SVG Version: 6.00 Build 0)  -->
<svg version="1.1" id="圖層_1" xmlns="http://www.w3.org/2000/svg" xmlns:xlink="http://www.w3.org/1999/xlink" x="0px" y="0px"
	 viewBox="0 0 259.5 259.5" style="enable-background:new 0 0 259.5 259.5;" xml:space="preserve">
<style type="text/css">
	.st0{fill:#FFFF00;}
</style>
<title>qa</title>
<path class="st0" d="M216.6,10H42.9C19.2,10.1,0,29.3,0,53c0,1.5,0.1,3.1,0.2,4.6l12.3,112.2c2.4,21.8,20.8,38.3,42.7,38.2h76.5
	l35.6,36.2c6.8,6.9,18,7,24.9,0.2c2.6-2.5,4.3-5.8,5-9.4l4.9-27c26,0,42.5-17.7,44.8-38.2l12.3-112.2c2.5-23.6-14.5-44.8-38.1-47.3
	C219.6,10.1,218.1,10,216.6,10z M239.9,59.1l-11.8,107.6c-1.4,13.6-12.9,23.9-26.7,23.9h-8.1c-3.5,0-6.4,2.5-7.1,5.9l-5.8,31.8
	c-0.3,1.3-1.5,2.3-3,2c-0.5-0.1-1-0.4-1.3-0.7l-24.8-25.1c7.3-3,5.2-13.8-2.7-13.8H58.5c-13.6,0-25.1-10.3-26.7-23.9L20.1,59.1
	c-1.6-14.7,9-27.9,23.8-29.4c1-0.1,1.9-0.2,2.8-0.2h166.5c14.8,0,26.8,12,26.8,26.9C240.1,57.3,240,58.3,239.9,59.1z"/>
<circle class="st0" cx="84.1" cy="113.7" r="12.2"/>
<circle class="st0" cx="129.7" cy="113.7" r="12.2"/>
<circle class="st0" cx="175.3" cy="113.7" r="12.2"/>
</svg>
