<?xml version="1.0" encoding="utf-8"?>
<!-- Generator: Adobe Illustrator 22.1.0, SVG Export Plug-In . SVG Version: 6.00 Build 0)  -->
<svg version="1.1" id="圖層_1" xmlns="http://www.w3.org/2000/svg" xmlns:xlink="http://www.w3.org/1999/xlink" x="0px" y="0px"
	 viewBox="0 0 90.4 23.4" style="enable-background:new 0 0 90.4 23.4;" xml:space="preserve">
<style type="text/css">
	.st0{fill:#FFFFFF;}
</style>
<g>
	<path class="st0" d="M21.2,11.4c-0.9,1.7-2.1,3.3-3.5,4.7c0.8,2.1,1.7,3.4,2.7,3.4c0.5,0,0.8-1,0.9-3.6c0.3,0.3,0.8,0.7,1.3,0.8
		C22.2,20,21.7,21,20.2,21c-1.6,0-2.8-1.4-3.7-3.7c-1.3,1.2-2.7,2.2-4.2,2.9c-0.2-0.4-0.6-0.9-1-1.2c1.7-0.8,3.3-1.9,4.7-3.2
		c-0.5-1.7-0.9-3.6-1.1-5.8h-4.7v3.2c1.2-0.3,2.4-0.5,3.6-0.8l0.1,1.3c-1.2,0.3-2.5,0.6-3.7,0.9V19c0,1-0.2,1.4-0.9,1.6
		c-0.6,0.2-1.7,0.3-3.3,0.3c-0.1-0.4-0.3-1.1-0.6-1.5c1.3,0.1,2.5,0,2.8,0c0.4,0,0.5-0.1,0.5-0.5v-4.1c-1.5,0.3-2.9,0.7-4.1,0.9
		l-0.4-1.5c1.2-0.2,2.8-0.5,4.6-0.9V10H4.4V8.5h4.3V5.4C7.5,5.6,6.2,5.8,5,6C5,5.6,4.8,5.1,4.6,4.7c2.8-0.4,6-1.1,7.9-1.8l1.1,1.2
		c-1,0.3-2.1,0.7-3.3,0.9v3.5h4.6c-0.2-1.8-0.3-3.7-0.3-5.7H16c0,2,0.1,3.9,0.2,5.7h5.9V10h-5.7c0.2,1.7,0.5,3.2,0.8,4.6
		c1.1-1.1,1.9-2.4,2.6-3.6L21.2,11.4z M20.4,7.4c-0.6-0.9-2-2.4-3.1-3.4l1.1-0.8c1.2,1,2.5,2.4,3.2,3.3L20.4,7.4z"/>
	<path class="st0" d="M40,15.3c-0.7,1.1-1.5,2-2.6,2.8c2.4,0.6,4.7,1.2,6.3,1.8l-1.3,1.1c-1.7-0.6-3.9-1.3-6.6-1.9
		c-2.2,1.1-5.2,1.6-8.9,1.9c-0.1-0.4-0.4-1-0.6-1.3c2.9-0.2,5.3-0.5,7.2-1.2c-1.5-0.3-3.1-0.6-4.6-0.9c0.6-0.6,1.2-1.5,1.8-2.3h-4.3
		V14h5.2c0.5-0.7,0.9-1.4,1.2-2.1l1.4,0.3c-0.3,0.6-0.6,1.2-1,1.8H39c0.2-0.4,0.4-0.7,0.5-1.2l1.4,0.4c-0.1,0.2-0.2,0.5-0.3,0.7h3.4
		v1.3H40z M32.1,4.9h-5.4V3.5h17.1v1.3h-5.6v1.7H43v5.1H27.7V6.5h4.4V4.9z M29.1,10.5h3V7.8h-3V10.5z M32.4,15.3
		c-0.4,0.6-0.8,1.1-1.1,1.6c1.4,0.2,2.9,0.5,4.3,0.8c1.1-0.6,2-1.4,2.8-2.3H32.4z M36.8,4.9h-3.2v1.7h3.2V4.9z M33.5,10.5h3.2V7.8
		h-3.2V10.5z M38.2,7.8v2.7h3.3V7.8H38.2z"/>
	<path class="st0" d="M53.4,15.6h3.6v1.3h-3.6v4H52v-4h-3.7v-1.3H52v-2.2h-3.3v-1.3h1.9c-0.1-0.7-0.5-1.7-0.9-2.4l1.1-0.3
		c0.5,0.7,0.9,1.7,1,2.4l-1,0.4h2.5c0.5-0.9,1.1-2,1.4-2.8l1.3,0.3c-0.4,0.8-0.9,1.7-1.3,2.5h2v1.3h-3.2V15.6z M56.9,9.3h-8.6V8H52
		V6h-3.1V4.7H52v-2h1.4v2h3V6h-3v2h3.5V9.3z M65.9,10.6c-0.4,2.4-1.2,4.6-2.4,6.5c0.9,1.1,2,1.9,3.2,2.5c-0.3,0.3-0.8,0.8-1,1.2
		c-1.1-0.6-2.1-1.5-3-2.5c-0.8,1.1-1.8,2-2.9,2.7c-0.2-0.2-0.4-0.5-0.7-0.7v0.7h-1.4V3.6h7.7v3.8c0,0.8-0.1,1.1-0.8,1.4
		C64,9,63,9,61.5,9c-0.1-0.4-0.3-0.9-0.5-1.3c1.2,0,2.3,0,2.6,0c0.3,0,0.4-0.1,0.4-0.3V4.9h-5v5.4h5.7l0.2-0.1L65.9,10.6z M59,19.7
		c1-0.7,1.9-1.6,2.7-2.6c-1.1-1.6-1.9-3.5-2.5-5.5H59V19.7z M60.5,11.6c0.5,1.5,1.2,3,2,4.3c0.8-1.3,1.4-2.8,1.7-4.3H60.5z"/>
	<path class="st0" d="M86.2,20.9h-1.5v-1h-8.9v1h-1.5v-6.6c-1.1,0.4-2.2,0.7-3.3,1c-0.1-0.4-0.5-1-0.8-1.4c2.5-0.5,5.2-1.5,7.5-2.7
		c-1-1-2.5-2.2-3.8-3.1c-0.7,0.5-1.4,0.9-2.2,1.3c-0.2-0.3-0.7-0.9-1-1.1c3.2-1.6,5.5-3.8,6.7-5.7L79.1,3c-0.4,0.6-0.8,1.1-1.3,1.7
		h7.1l0.2-0.1l1,0.6c-1.6,3.2-4.5,5.6-7.8,7.4h7.9V20.9z M76.5,6c-0.4,0.4-0.9,0.8-1.3,1.2c1.4,1,3,2.2,4,3.2
		c1.9-1.2,3.6-2.7,4.7-4.4H76.5z M84.7,18.5V14h-8.9v4.5H84.7z"/>
</g>
</svg>
