<svg id="圖層_1" data-name="圖層 1" xmlns="http://www.w3.org/2000/svg" viewBox="0 0 292.95 292.98"><title>sign</title><path d="M275,17.57a44.94,44.94,0,0,0-63.56,0L33.23,195.74a10,10,0,0,0-2.56,4.4L7.24,284.73A10,10,0,0,0,19.52,297l84.59-23.43a10,10,0,0,0,4.4-2.56L286.68,92.84a45,45,0,0,0,0-63.56ZM55,202.23,200.81,56.41l47,47L102,249.26ZM45.6,221.08l37.57,37.58-52,14.4Zm227-142.36L262,89.31l-47-47,10.6-10.59a25,25,0,0,1,35.31,0l11.72,11.72A25,25,0,0,1,272.56,78.72Z" transform="translate(-6.87 -4.4)" style="fill:#ff0"/></svg>