<?xml version="1.0" encoding="utf-8"?>
<!-- Generator: Adobe Illustrator 22.1.0, SVG Export Plug-In . SVG Version: 6.00 Build 0)  -->
<svg version="1.1" id="圖層_1" xmlns="http://www.w3.org/2000/svg" xmlns:xlink="http://www.w3.org/1999/xlink" x="0px" y="0px"
	 viewBox="0 0 90.4 23.4" style="enable-background:new 0 0 90.4 23.4;" xml:space="preserve">
<style type="text/css">
	.st0{fill:#FFFFFF;}
</style>
<g>
	<path class="st0" d="M21.1,11c-0.9,1.7-2.1,3.3-3.5,4.7c0.8,2.1,1.7,3.4,2.7,3.4c0.5,0,0.8-1,0.9-3.6c0.3,0.3,0.8,0.7,1.3,0.8
		c-0.3,3.3-0.8,4.3-2.3,4.3c-1.6,0-2.8-1.4-3.7-3.7c-1.3,1.2-2.7,2.2-4.2,2.9c-0.2-0.4-0.6-0.9-1-1.2c1.7-0.8,3.3-1.9,4.7-3.2
		c-0.5-1.7-0.9-3.6-1.1-5.8h-4.7v3.2c1.2-0.3,2.4-0.5,3.6-0.8l0.1,1.3c-1.2,0.3-2.5,0.6-3.7,0.9v4.4c0,1-0.2,1.4-0.9,1.6
		c-0.6,0.2-1.7,0.3-3.3,0.3c-0.1-0.4-0.3-1.1-0.6-1.5c1.3,0.1,2.5,0,2.8,0c0.4,0,0.5-0.1,0.5-0.5v-4.1c-1.5,0.3-2.9,0.7-4.1,0.9
		L4.1,14c1.2-0.2,2.8-0.5,4.6-0.9V9.6H4.3V8.1h4.3V5C7.4,5.2,6.1,5.4,4.9,5.6C4.9,5.2,4.7,4.7,4.5,4.3c2.8-0.4,6-1.1,7.9-1.8
		l1.1,1.2c-1,0.3-2.1,0.7-3.3,0.9v3.5h4.6c-0.2-1.8-0.3-3.7-0.3-5.7h1.5c0,2,0.1,3.9,0.2,5.7H22v1.4h-5.7c0.2,1.7,0.5,3.2,0.8,4.6
		c1.1-1.1,1.9-2.4,2.6-3.6L21.1,11z M20.3,7c-0.6-0.9-2-2.4-3.1-3.4l1.1-0.8c1.2,1,2.5,2.4,3.2,3.3L20.3,7z"/>
	<path class="st0" d="M39.9,14.9c-0.7,1.1-1.5,2-2.6,2.8c2.4,0.6,4.7,1.2,6.3,1.8l-1.3,1.1c-1.7-0.6-3.9-1.3-6.6-1.9
		c-2.2,1.1-5.2,1.6-8.9,1.9c-0.1-0.4-0.4-1-0.6-1.3c2.9-0.2,5.3-0.5,7.2-1.2c-1.5-0.3-3.1-0.6-4.6-0.9c0.6-0.6,1.2-1.5,1.8-2.3h-4.3
		v-1.3h5.2c0.5-0.7,0.9-1.4,1.2-2.1l1.4,0.3c-0.3,0.6-0.6,1.2-1,1.8h5.8c0.2-0.4,0.4-0.7,0.5-1.2l1.4,0.4c-0.1,0.2-0.2,0.5-0.3,0.7
		H44v1.3H39.9z M32,4.5h-5.4V3.1h17.1v1.3h-5.6v1.7h4.8v5.1H27.6V6.1H32V4.5z M29,10.1h3V7.4h-3V10.1z M32.3,14.9
		c-0.4,0.6-0.8,1.1-1.1,1.6c1.4,0.2,2.9,0.5,4.3,0.8c1.1-0.6,2-1.4,2.8-2.3H32.3z M36.7,4.5h-3.2v1.7h3.2V4.5z M33.4,10.1h3.2V7.4
		h-3.2V10.1z M38.1,7.4v2.7h3.3V7.4H38.1z"/>
	<path class="st0" d="M52.3,13v5.6c0,0.8-0.2,1.2-0.7,1.5c-0.5,0.2-1.3,0.3-2.7,0.3c-0.1-0.4-0.3-1-0.5-1.4c1,0,1.8,0,2.1,0
		c0.3,0,0.4-0.1,0.4-0.4v-5.2l-2.5,0.7l-0.4-1.4c0.8-0.2,1.8-0.5,3-0.8V7.7h-2.7V6.3h2.7v-4h1.5v4h2.5v1.4h-2.5v3.9l1.9-0.5l0.2,1.4
		L52.3,13z M64.9,11.4c-0.8,2.4-2.2,4.3-3.9,5.7c1.5,0.9,3.3,1.6,5.3,2.1c-0.3,0.3-0.7,0.9-0.9,1.4c-2.1-0.5-4-1.4-5.6-2.5
		c-1.7,1.2-3.8,2-5.9,2.5c-0.1-0.4-0.5-1-0.7-1.4c1.9-0.4,3.8-1.1,5.4-2.1c-1.4-1.3-2.5-2.8-3.3-4.6l0.2-0.1h-0.8V11h8.9l0.3-0.1
		L64.9,11.4z M58,5.2c0,1.8-0.5,3.9-3,5.3c-0.2-0.3-0.7-0.9-1-1.1c2.2-1.2,2.6-2.9,2.6-4.3V3h6.3v4.6c0,0.6,0.1,0.8,0.4,0.8h1.5
		c0.3,0,0.7,0,1-0.1c0,0.4,0.1,0.9,0.1,1.3c-0.3,0.1-0.7,0.1-1.1,0.1h-1.7c-1.4,0-1.7-0.6-1.7-2.1V4.4H58V5.2z M56.7,12.4
		c0.7,1.5,1.8,2.7,3,3.8c1.3-1,2.4-2.3,3.1-3.8H56.7z"/>
	<path class="st0" d="M76,16.5c-1.2,1.4-3.1,2.8-4.7,3.6c-0.2-0.2-0.8-0.8-1.1-1c1.7-0.7,3.5-1.9,4.5-3.1L76,16.5z M88.1,14.3v1.2
		h-8.2v5.1h-1.5v-5.1h-8.1v-1.2H88.1z M76.1,4.3h-5.6V3.1h17.2v1.2h-5.6v1.5h4.7v4.6h-15V5.8h4.4V4.3z M72.7,12.9v-1.2h12.9v1.2
		H72.7z M73.1,9.3h3V7h-3V9.3z M80.6,4.3h-3.1v1.5h3.1V4.3z M77.5,9.3h3.1V7h-3.1V9.3z M82.1,7v2.3h3.2V7H82.1z M83.1,16.1
		c1.6,0.9,3.7,2.2,4.8,3.1L86.8,20c-1-0.9-3.1-2.3-4.8-3.2L83.1,16.1z"/>
</g>
</svg>
