<svg id="圖層_1" data-name="圖層 1" xmlns="http://www.w3.org/2000/svg" viewBox="0 0 40.29 43.65"><title>vote</title><path d="M44.93,29.35a7.58,7.58,0,0,0,1.29-4.28,6.81,6.81,0,0,0-6.71-6.69H34.89a11.52,11.52,0,0,0,1.26-5,10.88,10.88,0,0,0-.92-4.88,5.77,5.77,0,0,0-2.68-2.66,9,9,0,0,0-4-.85,3.33,3.33,0,0,0-2.36,1A6.31,6.31,0,0,0,24.6,8.76q-.5,1.73-.8,3.32a4.45,4.45,0,0,1-.93,2.24q-1.29,1.39-2.81,3.36a23.2,23.2,0,0,1-3.59,4.07H9.28A3.36,3.36,0,0,0,5.93,25.1V41.89a3.36,3.36,0,0,0,3.36,3.36h7.55a19.4,19.4,0,0,1,3.62,1q3.23,1.13,5.68,1.72a21.17,21.17,0,0,0,5,.59h3.38a8.36,8.36,0,0,0,6-2.11,7.43,7.43,0,0,0,2.23-5.76,7.38,7.38,0,0,0,1.57-4.67,7.93,7.93,0,0,0-.08-1.13,7.53,7.53,0,0,0,1-3.78A6.85,6.85,0,0,0,44.93,29.35Zm-32.79,12a1.65,1.65,0,1,1,.5-1.18A1.61,1.61,0,0,1,12.14,41.39ZM42.3,27.23q-.56,1.21-1.4,1.23a3.54,3.54,0,0,1,.66,1.25,4.72,4.72,0,0,1,.26,1.46,4.15,4.15,0,0,1-1.39,3.12,3.63,3.63,0,0,1,.47,1.81A4.42,4.42,0,0,1,40.44,38a2.92,2.92,0,0,1-1.25,1.38,9,9,0,0,1,.13,1.47q0,4.38-5,4.38H31.11a29,29,0,0,1-9-1.91l-.76-.28-.93-.33-.92-.3q-.62-.2-1-.29T17.67,42a5.29,5.29,0,0,0-.83-.08H16V25.1h.84a2.26,2.26,0,0,0,.93-.24,4.43,4.43,0,0,0,1-.71q.54-.47,1-.93a14.92,14.92,0,0,0,1-1.15q.58-.7.91-1.11l.83-1.08.6-.79q1.44-1.78,2-2.39a6.66,6.66,0,0,0,1.56-2.87q.49-1.74.8-3.29a4.34,4.34,0,0,1,1-2.23q2.52,0,3.36,1.23a6.85,6.85,0,0,1,.84,3.8,10.71,10.71,0,0,1-1.26,4.21,10.7,10.7,0,0,0-1.26,4.18H39.5a3.23,3.23,0,0,1,2.33,1,3.2,3.2,0,0,1,1,2.35A5.16,5.16,0,0,1,42.3,27.23Z" transform="translate(-5.93 -4.95)" style="fill:#ff0"/></svg>