<?xml version="1.0" encoding="utf-8"?>
<!-- Generator: Adobe Illustrator 20.0.0, SVG Export Plug-In . SVG Version: 6.00 Build 0)  -->
<svg version="1.1" id="style-title" xmlns="http://www.w3.org/2000/svg" xmlns:xlink="http://www.w3.org/1999/xlink" x="0px"
	 y="0px" viewBox="0 0 210.9 52.9" style="enable-background:new 0 0 210.9 52.9;" xml:space="preserve">
<style type="text/css">
	.st0{fill:#A5283A;}
	.st1{fill:#FFFFFF;}
</style>
<circle id="橢圓_934" class="st0" cx="79.5" cy="26.3" r="26.5"/>
<circle id="橢圓_934_拷貝" class="st0" cx="131.4" cy="26.3" r="26.5"/>
<circle id="橢圓_934_拷貝_2" class="st0" cx="184.4" cy="26.3" r="26.5"/>
<ellipse id="橢圓_934_拷貝_3" class="st0" cx="26.5" cy="26.1" rx="26.5" ry="26.3"/>
<path class="st1" d="M19.9,19.4c-0.6,1.2-1.3,2.4-2,3.6v17h-2.6V26.7c-0.7,1-1.5,1.8-2.2,2.6c-0.3-0.6-1.1-1.9-1.6-2.5
	c2.2-2,4.4-5.2,5.8-8.2L19.9,19.4z M19.5,13.4c-1.5,2.5-3.9,5.2-6.1,7c-0.3-0.6-1-1.6-1.4-2.1c1.8-1.5,3.9-3.9,5-5.8L19.5,13.4z
	 M38.8,20.9c-0.5,4.7-1.4,8.6-2.9,11.8c1.1,2.2,2.5,4,4.4,5.1c-0.5,0.5-1.4,1.5-1.8,2.2c-1.6-1.1-2.9-2.8-4-4.7
	c-1.3,2-2.9,3.6-4.9,5c-0.3-0.5-1.3-1.4-1.8-1.9c0.6-0.4,1.1-0.8,1.7-1.2c-3.3,0.5-6.7,1-9.3,1.3l-0.6-2.2c1.2-0.1,2.6-0.3,4.1-0.4
	v-2.7h-4.4V31h4.4v-2c-1.2,0.2-2.4,0.2-3.5,0.3c-0.1-0.5-0.4-1.3-0.6-1.8c3-0.3,6.7-0.8,8.7-1.4l1.4,1.8c-1,0.3-2.3,0.5-3.6,0.8V31
	h4.4v2.1h-4.4v2.4l3.8-0.4l0.1,1.6c1.3-1.2,2.4-2.6,3.3-4.2c-0.8-2.1-1.3-4.4-1.8-6.9c-0.3,0.6-0.6,1.2-1,1.7
	c-0.4-0.5-1.2-1.5-1.7-2.1h-9.3v-2.3h10.2v0.3c1.3-2.9,2-6.7,2.5-10.7l2.5,0.4c-0.3,1.9-0.6,3.8-1,5.6h5.9v2.4
	C39.6,20.9,38.8,20.9,38.8,20.9z M30,21.2h-9.9v-6.7H22V19h1.9v-6.5H26V19h2v-4.6h2V21.2z M33.3,20.9c-0.1,0.4-0.2,0.7-0.3,1
	c0.4,2.7,0.9,5.3,1.6,7.6c0.8-2.5,1.4-5.4,1.7-8.6H33.3z"/>
<path class="st1" d="M74.5,13.2c-0.8,2.2-1.8,4.4-2.9,6.5v20.1H69V23.9c-0.7,1.1-1.6,2.1-2.3,2.9c-0.3-0.7-1-2.2-1.5-2.8
	c2.7-2.8,5.3-7.2,6.8-11.5L74.5,13.2z M92.7,29.6h-7.9v10.2H82V29.6h-8.3v-2.7H82V21h-4.3c-0.6,1.6-1.3,3.1-2,4.2
	c-0.5-0.4-1.7-1-2.4-1.3c1.7-2.4,2.9-6.2,3.6-10l2.7,0.5c-0.3,1.3-0.6,2.6-1,3.8H82v-5.6h2.8v5.6h6.6v2.7h-6.6v5.9h7.9V29.6z"/>
<path class="st1" d="M128.6,29.4c-3.7,1.3-7.6,2.8-10.5,3.8l-1.1-2.7c1.2-0.4,2.7-0.8,4.3-1.4V17h-3.7v-2.6h10.2V17h-3.7v11.2l4-1.3
	L128.6,29.4z M134.8,34.8c-1.9,1.5-5,3.1-7.6,3.9c-0.4-0.5-1.2-1.4-1.7-1.9c2.5-0.8,5.5-2.3,7.1-3.5L134.8,34.8z M134.2,17.5
	c0.2-0.8,0.4-1.7,0.5-2.6H128v-2.4h16.8v2.4h-6.9c-0.3,0.9-0.6,1.8-0.9,2.6h6.7v15.6h-14.4V17.5H134.2z M140.9,19.6h-9v2.5h9V19.6z
	 M140.9,24h-9v2.5h9V24z M140.9,28.4h-9v2.5h9V28.4z M139.3,33.4c1.9,1,4.6,2.6,6,3.7l-2.2,1.7c-1.2-1.1-3.9-2.8-5.8-3.9L139.3,33.4
	z"/>
<path class="st1" d="M194.2,12.5v25.6h-2.9v-2h-14.9v2h-2.8V12.5H194.2z M176.4,15.3v4.3h14.8v-4.3H176.4z M176.4,22.2v4.3h14.8
	v-4.3H176.4z M191.2,33.4v-4.3h-14.8v4.3H191.2z"/>
</svg>
