<svg id="栝鍣_1" data-name="栝鍣 1" xmlns="http://www.w3.org/2000/svg" viewBox="0 0 313.84 56.7"><title>decorate</title><path d="M239.79,40.83c1.13,0,2.26-.07,3.38-.16a2.57,2.57,0,0,0,1.64-.84,8.85,8.85,0,0,0,2.14-3.5,2.47,2.47,0,0,0-.2-2.17,6.59,6.59,0,0,1-.67-1.34,2.31,2.31,0,0,1,.9-2.65,2.44,2.44,0,0,1,2.81.19,2.49,2.49,0,0,1,.54,2.77c-.17.33-.41.63-.61.94a8.45,8.45,0,0,0-.79,1.26c-.53,1.27-1,2.57-1.48,3.86-.15.39.42,1,.9.92.75-.09,1.51-.14,2.24-.3q2.2-.5,4.37-1.12a7.42,7.42,0,0,0,1.33-.67,1.54,1.54,0,0,0,.4-1c-.11-.36-.19-.73-.33-1.08-.42-1-.91-2.07-1.3-3.13a10.82,10.82,0,0,1,.14-8.09,12.89,12.89,0,0,1,1.61-3,5.69,5.69,0,0,1,4.12-2.36,13.88,13.88,0,0,1,1.5-.06,5.44,5.44,0,0,1,5,3.36,9.43,9.43,0,0,1,0,8.37c-.36.8-.84,1.54-1.24,2.32a.49.49,0,0,0,.14.66,1.72,1.72,0,0,0,.68.16.73.73,0,0,0,.36-.11c1.24-.61,2.55-1,3.84-1.53a18.79,18.79,0,0,0,9.8-8.42,2.77,2.77,0,0,0,.37-1.44,18.67,18.67,0,0,1,0-1.87,2.37,2.37,0,0,1,2.05-1.92,2.4,2.4,0,0,1,1.31,4.49c-.32.18-.7.28-1,.47a2.77,2.77,0,0,0-.91.63c-1.12,1.51-2.2,3.05-3.28,4.59-.16.23.14.85.42.87a8.42,8.42,0,0,0,1.11.1c1.13,0,2.26-.15,3.39-.19a12.54,12.54,0,0,0,5.77-1.48,37.09,37.09,0,0,1,4.86-2,19.87,19.87,0,0,1,10-.78,8.49,8.49,0,0,1,3.14,1.21,5.37,5.37,0,0,1,1.63,1.55,4.62,4.62,0,0,1,.88,2.45,6.13,6.13,0,0,1-.67,3.64,4.26,4.26,0,0,1-1.54,1.62,14.2,14.2,0,0,1-7.17,2A5.6,5.6,0,0,1,298.26,37c-.72-.5-1.37-1.1-2-1.67a18.44,18.44,0,0,0-6.3-3.29,16.4,16.4,0,0,0-7.07-.61,34.83,34.83,0,0,0-3.69.72.39.39,0,0,0-.34.5.44.44,0,0,0,.24.26c1.09.29,2.19.56,3.28.83a7.06,7.06,0,0,1,2.38,1.11,4.71,4.71,0,0,1,2.08,4.9,4,4,0,0,1-.71,1.72,8.7,8.7,0,0,1-3.82,3,4.87,4.87,0,0,1-3.32.16,6.54,6.54,0,0,1-3.64-2.54A24.36,24.36,0,0,1,274,39.8c-.55-1-1-2-1.6-3a6,6,0,0,0-.92-1.18,2,2,0,0,0-1.72-.57,1.52,1.52,0,0,0-.37.07,46.8,46.8,0,0,0-5.58,2.26c-.34.18-.46.72-.18.93a6.74,6.74,0,0,0,.9.66,11.44,11.44,0,0,1,3.82,3,9.86,9.86,0,0,0,2.13,1.52,2.5,2.5,0,0,1,1,1.53,2.36,2.36,0,0,1-4.22,1.86,2.35,2.35,0,0,1-.49-1.77c.06-.37.17-.73.26-1.1a1.79,1.79,0,0,0-.53-1.72A8.52,8.52,0,0,0,265,41.09a13.06,13.06,0,0,0-3.78-1.66,5.12,5.12,0,0,0-3.32,0,8.42,8.42,0,0,0-1.06.39,1.36,1.36,0,0,0-.45.55.47.47,0,0,0,.19.66c.75.45,1.55.84,2.26,1.33a5.94,5.94,0,0,1,2,2.23,5.3,5.3,0,0,1-.45,5.7,11,11,0,0,1-5.31,4,4.19,4.19,0,0,1-1.1.25c-.62.06-1.25.08-1.88.07a6.27,6.27,0,0,1-5.7-3.69,10.46,10.46,0,0,1-1-2.84c-.26-1.23-.53-2.46-.81-3.68a5.54,5.54,0,0,0-.39-1.05,1.66,1.66,0,0,0-1.13-.91,3,3,0,0,0-.75-.08c-2,0-4,0-6,0a1.8,1.8,0,0,0-1.08.28.62.62,0,0,0-.3.62,4.33,4.33,0,0,0,.83,1.66A9.44,9.44,0,0,1,237,48.12c.18,1,.55,1.93.8,2.9a2.42,2.42,0,0,1-1.19,2.55,2.26,2.26,0,0,1-2.75-.45A2.5,2.5,0,0,1,233.7,50a4.67,4.67,0,0,1,.8-.79c1.09-.82.94-1.53.39-2.63a6.94,6.94,0,0,0-1-1.56c-.85-.92-1.76-1.79-2.67-2.65a3.8,3.8,0,0,0-1-.56,3.49,3.49,0,0,0-.72-.23c-2.45-.57-4.86-1.26-7.24-2a3.63,3.63,0,0,0-.74-.07c-.3,0-.69.52-.56.82.4.92.82,1.83,1.21,2.76a7.27,7.27,0,0,1,.32,4.44,3.91,3.91,0,0,1-.42,1,6.24,6.24,0,0,1-7.19,2.67,4.46,4.46,0,0,1-2.29-1.86,7.62,7.62,0,0,1-1.1-3.18,20.08,20.08,0,0,1,.37-6.74,16.1,16.1,0,0,0,.62-3.33,1.49,1.49,0,0,0-.57-1.33,45.19,45.19,0,0,0-7.16-4.12c-.29-.12-.83.28-.81.57a21.18,21.18,0,0,1,.46,3.34,15.87,15.87,0,0,0,.28,3,3.5,3.5,0,0,1,0,.38,2.35,2.35,0,0,1-1.72,2.21,2.31,2.31,0,0,1-2.57-1.1,2.49,2.49,0,0,1,.53-3.08c.39-.31.84-.55,1.24-.85a1.52,1.52,0,0,0,.58-1.32,4.75,4.75,0,0,0-.71-2.51,9.52,9.52,0,0,0-1.12-1.51,12.29,12.29,0,0,0-5-3.29,33.94,33.94,0,0,0-8.79-2,10,10,0,0,0-1.5.08.57.57,0,0,0-.35.86c.57.67,1.17,1.31,1.75,2a15.09,15.09,0,0,1,2.54,3.72A7.9,7.9,0,0,1,190,36.3a4.33,4.33,0,0,1-1.09,2A8.41,8.41,0,0,1,183,41.11a10.6,10.6,0,0,1-1.13,0,3.82,3.82,0,0,1-3.38-2.59,13.89,13.89,0,0,1-.69-2.54A17.55,17.55,0,0,1,178,29.6c.23-1,.49-1.95.72-2.93a6.15,6.15,0,0,0,.07-.75,1.29,1.29,0,0,0-.93-1,2.87,2.87,0,0,0-.37-.05,39.91,39.91,0,0,0-12.64,3.51,9.64,9.64,0,0,0-1.24.83c-.28.19-.21.72.13.95a10.92,10.92,0,0,0,.94.62A7,7,0,0,1,167,32.61a25,25,0,0,0,2.15,2.1A2.45,2.45,0,0,1,169,38.1a2.4,2.4,0,0,1-3.84-2.62,10.34,10.34,0,0,0,.49-1.42,1.5,1.5,0,0,0-.19-.71.83.83,0,0,0-.2-.31,5.06,5.06,0,0,0-4.5-1.39,13.34,13.34,0,0,0-2.12.76.61.61,0,0,1-.67-.15.93.93,0,0,1-.13-1,7.21,7.21,0,0,1,1-1.1c.89-.69,1.84-1.31,2.76-2a1.19,1.19,0,0,0,.25-1.36c-.22-.31-.43-.62-.66-.92L160,24.39a14.59,14.59,0,0,1-3.18-8.31c-.06-1-.13-2-.09-3a7,7,0,0,1,5.5-6.78,6.17,6.17,0,0,1,5,.85,11,11,0,0,1,3.79,4.12,8.37,8.37,0,0,1,.19,8,47.75,47.75,0,0,1-2.81,4.46,1.38,1.38,0,0,0-.17.7.48.48,0,0,0,.46.49,3.77,3.77,0,0,0,1.12-.09,63.33,63.33,0,0,1,7.74-1.61,2.22,2.22,0,0,0,1-.42c1.58-1.24,3.16-2.48,4.68-3.8a10.75,10.75,0,0,0,2.91-3.9,2.37,2.37,0,0,0,.25-.71,2.63,2.63,0,0,0-.07-1.1,9.78,9.78,0,0,0-.76-1.3,2.27,2.27,0,0,1,.52-3.05,2.21,2.21,0,0,1,2.45-.4,2.4,2.4,0,0,1,1.44,2.05,2,2,0,0,1-.35,1.43,11.83,11.83,0,0,0-2,3.57,10.08,10.08,0,0,1-2.5,3.73c-.79.8-1.62,1.57-2.41,2.38a.48.48,0,0,0,0,.68,1.19,1.19,0,0,0,.27.23,1.07,1.07,0,0,0,.35.13,5.88,5.88,0,0,0,.75.09,44.38,44.38,0,0,1,10.4,1.58,2.83,2.83,0,0,0,1.11.07,1,1,0,0,0,.58-.42,1.71,1.71,0,0,0,.22-.71c.11-.74.16-1.5.3-2.24a13.73,13.73,0,0,1,6.52-9.27,9.09,9.09,0,0,1,2.77-1.16,5.11,5.11,0,0,1,4.9,1.21,7.26,7.26,0,0,1,2.17,3.47,4.73,4.73,0,0,1,0,2.6,8.12,8.12,0,0,1-1.33,2.69,17.56,17.56,0,0,1-5.89,5.18,7,7,0,0,0-2.24,1.34.53.53,0,0,0,0,.68,1.87,1.87,0,0,0,.52.53c.65.39,1.31.73,2,1.1a5.73,5.73,0,0,0,2.54.62,12.56,12.56,0,0,0,7.5-2,1.58,1.58,0,0,0,.78-1.22,5.2,5.2,0,0,1,.36-1.84,2.46,2.46,0,0,1,2-1.47,2,2,0,0,1,1.4.44,2.27,2.27,0,0,1,1,2.28,2.08,2.08,0,0,1-1.56,1.92,11.39,11.39,0,0,0-3.46,1.41c-1.49,1-3.25,1.3-4.83,2.07-.27.13-.29.76,0,1,.09.08.15.2.25.27a5.79,5.79,0,0,0,.62.43A58.09,58.09,0,0,0,228,39.63a6.27,6.27,0,0,0,.75.08,1,1,0,0,0,.91-1,10.82,10.82,0,0,0-.26-1.48,13.94,13.94,0,0,1-.53-4.85,8.16,8.16,0,0,1,4.27-7.08,5.67,5.67,0,0,1,2.13-.7A5.48,5.48,0,0,1,241,27.4a5.16,5.16,0,0,1,.68,4,8.62,8.62,0,0,1-.94,2.45,13.42,13.42,0,0,1-2,2.7c-.79.8-1.64,1.56-2.45,2.35-.35.34-.87.66-.71,1.22.23.77,1,.63,1.57.67.88,0,1.76,0,2.64,0v.07ZM158.27,14.13h0c0,.68.05,1.31.09,1.93a12.87,12.87,0,0,0,3.75,8.38.94.94,0,0,0,1.52-.34,3.33,3.33,0,0,0,.23-.71,14.91,14.91,0,0,0-.35-6.32,4.37,4.37,0,0,1-.15-1.1.47.47,0,0,1,.19-.3.56.56,0,0,1,.66,0,.85.85,0,0,1,.28.25,3.53,3.53,0,0,1,.71,1.71c.11,1.12.19,2.24.28,3.37.05.62.09,1.24.14,1.86a.43.43,0,0,0,.51.44,1.15,1.15,0,0,0,.67-.22A20,20,0,0,0,170,18.4a10.44,10.44,0,0,0,.41-1,5.45,5.45,0,0,0,.06-3.68,9.41,9.41,0,0,0-4.38-5.42,3.67,3.67,0,0,0-1.42-.44,8,8,0,0,0-1.87,0,5.22,5.22,0,0,0-4.41,4.49c-.06.62-.07,1.25-.1,1.82ZM261,33.76h0c-.11.35-.33,1.07-.52,1.79a.39.39,0,0,0,.14.32.37.37,0,0,0,.33,0,14.2,14.2,0,0,0,4.54-4.41,8.4,8.4,0,0,0,1-7.21,5.52,5.52,0,0,0-1.08-2A3.94,3.94,0,0,0,263.61,21a5,5,0,0,0-5.44,1.52,11.84,11.84,0,0,0-2.26,5.11,6.31,6.31,0,0,0,0,2.62,12.07,12.07,0,0,0,1.59,4.19c.25.38,1.08.46,1.3.09a8.27,8.27,0,0,0,.75-1.29,13,13,0,0,0,.95-3.62,4.27,4.27,0,0,1,.3-1.06c0-.09.17-.16.28-.2.3-.12.52,0,.59.27a8.17,8.17,0,0,1-.68,5.11ZM198.27,22.49h0l.15.71a1,1,0,0,0,.89.53,4.24,4.24,0,0,0,1.59-1c.82-.77,1.6-1.58,2.43-2.33.12-.11.47,0,.66,0a.48.48,0,0,1,.21.65,5.34,5.34,0,0,1-1,1.55,31.92,31.92,0,0,0-2.38,2.37.54.54,0,0,0,0,.36.45.45,0,0,0,.49.42,11.48,11.48,0,0,0,4.5-1.74,15,15,0,0,0,5.32-5.17,4.2,4.2,0,0,0,.44-3.6,4.78,4.78,0,0,0-2.34-2.81,3.41,3.41,0,0,0-2.17-.4,7.81,7.81,0,0,0-3.15,1.14,13.1,13.1,0,0,0-4.34,4.58,8.39,8.39,0,0,0-1.25,4.66Zm103.4,4.22h0c-1.11.12-2.25.14-3.34.37a21.8,21.8,0,0,0-4.63,1.48,1.73,1.73,0,0,0-.6.44,1.48,1.48,0,0,0-.27.63c0,.07.14.22.25.26.83.25,1.66.52,2.51.72a21.23,21.23,0,0,1,3.24.9c.35.14.69.28,1,.43a3.21,3.21,0,0,1,.3.22.73.73,0,0,1,.24,1,.59.59,0,0,1-.64.27c-1-.24-1.85-.8-2.89-.66a.5.5,0,0,0-.3.21c-.06.09-.12.27-.07.34a8.79,8.79,0,0,0,3,2.68,4.23,4.23,0,0,0,2.53.54,14.13,14.13,0,0,0,5.36-1.55,4,4,0,0,0,1.66-4.87,4.38,4.38,0,0,0-2.31-2.34,12.36,12.36,0,0,0-5.12-1ZM259.89,47.12h0a3.75,3.75,0,0,0-1-2.68,5.73,5.73,0,0,0-3.21-1.85c-1-.18-2-.31-3-.44a2.27,2.27,0,0,0-.74.08.57.57,0,0,0-.31.21.56.56,0,0,0,0,.69c.5.56,1,1.08,1.56,1.61a12.82,12.82,0,0,1,2.17,2.59,4.64,4.64,0,0,1,.38,1,.58.58,0,0,1-.25.67.52.52,0,0,1-.66,0c-.41-.47-.77-1-1.16-1.47a16.9,16.9,0,0,0-4.19-3.75,5.68,5.68,0,0,0-2.11-.76c-.46-.07-1.09.39-1.08.81a2.73,2.73,0,0,0,0,.37c.2,1.11.36,2.23.62,3.33a16.28,16.28,0,0,0,.82,2.5,5.4,5.4,0,0,0,6.56,3A9.54,9.54,0,0,0,259,49.63a4,4,0,0,0,.85-2.51ZM179.11,33.39h0a16.41,16.41,0,0,0,.59,4.11,3.06,3.06,0,0,0,3.15,2.13A8.19,8.19,0,0,0,187,38a4.67,4.67,0,0,0,1.55-5.36,11,11,0,0,0-2.05-3.54A8.37,8.37,0,0,0,184,26.88a.56.56,0,0,0-.66.15c-.08.08-.18.22-.16.31.17,1,.39,2,.54,2.94a10.34,10.34,0,0,1,.09,1.86,2,2,0,0,1-.57,1.34.54.54,0,0,1-.32.16c-.29,0-.54-.13-.56-.38-.08-1-.1-2-.19-3a5,5,0,0,0-.85-2.45.61.61,0,0,0-.61-.29.78.78,0,0,0-.58.43,3.69,3.69,0,0,0-.33.66,18,18,0,0,0-.67,4.75Zm51.25-.53h0a13.53,13.53,0,0,0,.68,4.24.57.57,0,0,0,.58.37c.23,0,.55-.06.67-.22A5.23,5.23,0,0,0,233,36c.22-.58.31-1.2.5-1.8a5.92,5.92,0,0,1,.46-1,.46.46,0,0,1,.65-.21.63.63,0,0,1,.42.55,5.23,5.23,0,0,1-.1,1.1,8.45,8.45,0,0,0-.42,2.56.48.48,0,0,0,.23.28.64.64,0,0,0,.36.07.7.7,0,0,0,.34-.12,13.16,13.16,0,0,0,4.34-5,4.29,4.29,0,0,0-1.48-5.6,3.75,3.75,0,0,0-3.57-.42,6.36,6.36,0,0,0-4.17,4.89c-.12.61-.17,1.23-.23,1.65ZM212.81,43.52h0a8.74,8.74,0,0,0,.62,4.07,3.19,3.19,0,0,0,3.49,2.22,6.89,6.89,0,0,0,1.47-.22,4,4,0,0,0,2.85-3.93,4.3,4.3,0,0,0-.16-1.1,15.41,15.41,0,0,0-2.37-4.63c-.07-.09-.22-.12-.31-.2a.64.64,0,0,0-.9.31c-.15.73-.27,1.46-.47,2.18-.07.23-.39.31-.64.28a.51.51,0,0,1-.45-.48c0-.74,0-1.49-.06-2.24a3.93,3.93,0,0,0-.69-2.1.94.94,0,0,0-.6-.3.63.63,0,0,0-.6.39,1.75,1.75,0,0,0-.18.32,18.41,18.41,0,0,0-1,5.45ZM280.39,35h0a1.09,1.09,0,0,0-1,.32.84.84,0,0,0,.21,1c.76.83,1.53,1.64,2.26,2.49a1.15,1.15,0,0,1,.13.71.51.51,0,0,1-.43.5.48.48,0,0,1-.36,0c-.65-.58-1.27-1.19-1.92-1.78s-1.48-1.34-2.28-1.94a8.68,8.68,0,0,0-1.64-.88,1.82,1.82,0,0,0-.73-.07A.71.71,0,0,0,274,36a17.59,17.59,0,0,0,2.69,5.29,5.89,5.89,0,0,0,1.1,1,4.21,4.21,0,0,0,3.92.6,6.2,6.2,0,0,0,3.2-2.48,2.8,2.8,0,0,0,.46-1.78,3.23,3.23,0,0,0-1.47-2.49A6.12,6.12,0,0,0,280.39,35Z" style="fill:#703f0e;fill-rule:evenodd"/><path d="M74.31,40.83c-1.13,0-2.26-.07-3.38-.16a2.57,2.57,0,0,1-1.64-.84,8.84,8.84,0,0,1-2.14-3.5,2.47,2.47,0,0,1,.2-2.17A6.59,6.59,0,0,0,68,32.83a2.31,2.31,0,0,0-.9-2.65,2.44,2.44,0,0,0-2.81.19,2.49,2.49,0,0,0-.54,2.77c.17.33.41.63.61.94a8.42,8.42,0,0,1,.79,1.26c.53,1.27,1,2.57,1.48,3.86.15.39-.42,1-.9.92-.75-.09-1.51-.14-2.24-.3q-2.2-.5-4.37-1.12A7.42,7.42,0,0,1,57.81,38a1.54,1.54,0,0,1-.4-1c.11-.36.19-.73.33-1.08.42-1,.91-2.07,1.3-3.13a10.82,10.82,0,0,0-.14-8.09,12.89,12.89,0,0,0-1.61-3,5.69,5.69,0,0,0-4.12-2.36,13.88,13.88,0,0,0-1.5-.06,5.44,5.44,0,0,0-5,3.36,9.43,9.43,0,0,0,0,8.37c.36.8.84,1.54,1.24,2.32a.49.49,0,0,1-.14.66,1.72,1.72,0,0,1-.68.16.73.73,0,0,1-.36-.11c-1.24-.61-2.55-1-3.84-1.53A18.79,18.79,0,0,1,33,24.14a2.77,2.77,0,0,1-.37-1.44c0-.62.05-1.25,0-1.87a2.37,2.37,0,0,0-2.05-1.92,2.4,2.4,0,0,0-1.31,4.49c.32.18.7.28,1,.47a2.77,2.77,0,0,1,.91.63c1.12,1.51,2.2,3.05,3.28,4.59.16.23-.14.85-.41.87a8.42,8.42,0,0,1-1.11.1c-1.13,0-2.26-.15-3.39-.19a12.54,12.54,0,0,1-5.77-1.48,37.1,37.1,0,0,0-4.86-2,19.87,19.87,0,0,0-10-.78A8.49,8.49,0,0,0,5.81,26.8a5.37,5.37,0,0,0-1.63,1.55A4.62,4.62,0,0,0,3.3,30.8,6.13,6.13,0,0,0,4,34.44a4.27,4.27,0,0,0,1.54,1.62,14.2,14.2,0,0,0,7.17,2A5.6,5.6,0,0,0,15.84,37c.72-.5,1.37-1.1,2-1.67A18.44,18.44,0,0,1,24.18,32a16.4,16.4,0,0,1,7.07-.61,34.83,34.83,0,0,1,3.69.72.39.39,0,0,1,.34.5.44.44,0,0,1-.24.26c-1.09.29-2.19.56-3.28.83a7.06,7.06,0,0,0-2.38,1.11,4.71,4.71,0,0,0-2.08,4.9A4,4,0,0,0,28,41.48a8.7,8.7,0,0,0,3.82,3,4.87,4.87,0,0,0,3.32.16,6.54,6.54,0,0,0,3.64-2.54,24.23,24.23,0,0,0,1.35-2.26c.55-1,1-2,1.6-3a6,6,0,0,1,.92-1.18,2,2,0,0,1,1.72-.57,1.52,1.52,0,0,1,.37.07,46.79,46.79,0,0,1,5.58,2.26c.34.18.46.72.18.93a6.72,6.72,0,0,1-.9.66,11.44,11.44,0,0,0-3.82,3,9.86,9.86,0,0,1-2.13,1.52,2.5,2.5,0,0,0-1,1.53,2.36,2.36,0,0,0,4.22,1.86,2.35,2.35,0,0,0,.49-1.77c-.06-.37-.17-.73-.26-1.1a1.79,1.79,0,0,1,.53-1.72,8.52,8.52,0,0,1,1.43-1.22,13.06,13.06,0,0,1,3.78-1.66,5.12,5.12,0,0,1,3.32,0,8.43,8.43,0,0,1,1.06.39,1.36,1.36,0,0,1,.45.55.47.47,0,0,1-.19.66c-.75.45-1.55.84-2.26,1.33a5.94,5.94,0,0,0-2,2.23,5.3,5.3,0,0,0,.45,5.7,11,11,0,0,0,5.31,4,4.19,4.19,0,0,0,1.1.25c.62.06,1.25.08,1.88.07A6.27,6.27,0,0,0,67.66,51a10.47,10.47,0,0,0,1-2.84c.26-1.23.53-2.46.82-3.68a5.54,5.54,0,0,1,.39-1.05A1.66,1.66,0,0,1,71,42.54a3,3,0,0,1,.75-.08c2,0,4,0,6,0a1.8,1.8,0,0,1,1.08.28.62.62,0,0,1,.3.62A4.33,4.33,0,0,1,78.32,45a9.46,9.46,0,0,0-1.23,3.13c-.18,1-.55,1.93-.8,2.9a2.42,2.42,0,0,0,1.19,2.55,2.26,2.26,0,0,0,2.75-.45A2.5,2.5,0,0,0,80.4,50a4.67,4.67,0,0,0-.8-.79c-1.09-.82-.94-1.53-.38-2.63a6.94,6.94,0,0,1,1-1.56c.85-.92,1.76-1.79,2.67-2.65a3.8,3.8,0,0,1,1-.56,3.49,3.49,0,0,1,.72-.23c2.45-.57,4.86-1.26,7.24-2a3.63,3.63,0,0,1,.74-.07c.3,0,.69.52.56.82-.4.92-.83,1.83-1.21,2.76a7.27,7.27,0,0,0-.32,4.44,3.93,3.93,0,0,0,.42,1,6.24,6.24,0,0,0,7.19,2.67,4.46,4.46,0,0,0,2.29-1.86,7.63,7.63,0,0,0,1.1-3.18,20.08,20.08,0,0,0-.37-6.74,16.09,16.09,0,0,1-.62-3.33,1.49,1.49,0,0,1,.57-1.33,45.18,45.18,0,0,1,7.16-4.12c.29-.12.83.28.81.57a21.17,21.17,0,0,0-.46,3.34,15.86,15.86,0,0,1-.28,3,3.5,3.5,0,0,0,0,.38,2.35,2.35,0,0,0,1.72,2.21,2.31,2.31,0,0,0,2.57-1.1,2.49,2.49,0,0,0-.53-3.08c-.39-.31-.84-.55-1.24-.85a1.52,1.52,0,0,1-.58-1.32,4.75,4.75,0,0,1,.71-2.51,9.52,9.52,0,0,1,1.12-1.51,12.29,12.29,0,0,1,5-3.29,33.94,33.94,0,0,1,8.79-2,10,10,0,0,1,1.5.08.57.57,0,0,1,.34.86c-.57.67-1.17,1.31-1.75,2a15.09,15.09,0,0,0-2.54,3.72,7.9,7.9,0,0,0-.45,5.16,4.33,4.33,0,0,0,1.09,2,8.41,8.41,0,0,0,5.94,2.86,10.6,10.6,0,0,0,1.13,0,3.82,3.82,0,0,0,3.38-2.59,13.92,13.92,0,0,0,.69-2.54,17.54,17.54,0,0,0-.19-6.37c-.23-1-.49-1.95-.72-2.93a6.09,6.09,0,0,1-.07-.75,1.29,1.29,0,0,1,.93-1,2.87,2.87,0,0,1,.37-.05,39.91,39.91,0,0,1,12.64,3.51,9.65,9.65,0,0,1,1.24.83c.28.19.21.72-.13.95a10.83,10.83,0,0,1-.94.62,7,7,0,0,0-2.33,1.88,25,25,0,0,1-2.15,2.1,2.45,2.45,0,0,0,.16,3.39A2.4,2.4,0,0,0,149,35.48a10.28,10.28,0,0,1-.49-1.42,1.49,1.49,0,0,1,.19-.71.83.83,0,0,1,.2-.31,5.06,5.06,0,0,1,4.5-1.39,13.35,13.35,0,0,1,2.12.76.61.61,0,0,0,.67-.15.93.93,0,0,0,.13-1,7.2,7.2,0,0,0-1-1.1c-.89-.69-1.84-1.31-2.76-2a1.19,1.19,0,0,1-.25-1.36c.22-.31.43-.62.66-.92q.57-.75,1.15-1.49a14.59,14.59,0,0,0,3.18-8.31c.06-1,.13-2,.09-3a7,7,0,0,0-5.49-6.78,6.17,6.17,0,0,0-5,.85A11,11,0,0,0,143,11.25a8.37,8.37,0,0,0-.19,8,47.88,47.88,0,0,0,2.81,4.46,1.38,1.38,0,0,1,.17.7.48.48,0,0,1-.46.49,3.77,3.77,0,0,1-1.12-.09,63.31,63.31,0,0,0-7.74-1.61,2.22,2.22,0,0,1-1-.42c-1.58-1.24-3.16-2.48-4.68-3.8a10.75,10.75,0,0,1-2.91-3.9,2.37,2.37,0,0,1-.25-.71,2.62,2.62,0,0,1,.07-1.1,9.84,9.84,0,0,1,.76-1.3,2.27,2.27,0,0,0-.52-3.05,2.21,2.21,0,0,0-2.45-.4A2.4,2.4,0,0,0,124,10.54a2,2,0,0,0,.35,1.43,11.84,11.84,0,0,1,2,3.57,10.08,10.08,0,0,0,2.5,3.73c.79.8,1.62,1.57,2.41,2.38a.48.48,0,0,1,0,.68,1.18,1.18,0,0,1-.27.23,1.07,1.07,0,0,1-.35.13,5.89,5.89,0,0,1-.75.09,44.38,44.38,0,0,0-10.4,1.58,2.83,2.83,0,0,1-1.11.07,1,1,0,0,1-.58-.42,1.72,1.72,0,0,1-.22-.71c-.11-.74-.16-1.5-.3-2.24a13.73,13.73,0,0,0-6.52-9.27A9.09,9.09,0,0,0,108,10.64a5.11,5.11,0,0,0-4.9,1.21A7.26,7.26,0,0,0,101,15.31a4.73,4.73,0,0,0,0,2.6,8.11,8.11,0,0,0,1.33,2.69,17.56,17.56,0,0,0,5.89,5.18,7,7,0,0,1,2.24,1.34.53.53,0,0,1,0,.68,1.88,1.88,0,0,1-.52.53c-.65.39-1.32.73-2,1.1a5.73,5.73,0,0,1-2.54.62,12.56,12.56,0,0,1-7.5-2,1.58,1.58,0,0,1-.78-1.22,5.21,5.21,0,0,0-.36-1.84,2.46,2.46,0,0,0-2-1.47,2,2,0,0,0-1.4.44,2.27,2.27,0,0,0-1,2.28,2.08,2.08,0,0,0,1.56,1.92,11.39,11.39,0,0,1,3.46,1.41c1.49,1,3.25,1.3,4.83,2.07.27.13.29.76,0,1-.09.08-.15.2-.25.27a5.79,5.79,0,0,1-.62.43,58.09,58.09,0,0,1-15.25,6.34,6.27,6.27,0,0,1-.75.08,1,1,0,0,1-.91-1,10.82,10.82,0,0,1,.26-1.48,14,14,0,0,0,.53-4.85,8.16,8.16,0,0,0-4.27-7.08,5.67,5.67,0,0,0-2.13-.7,5.48,5.48,0,0,0-5.75,2.75,5.16,5.16,0,0,0-.68,4,8.62,8.62,0,0,0,.94,2.45,13.42,13.42,0,0,0,2,2.7c.79.8,1.64,1.56,2.45,2.35.35.34.87.66.71,1.22-.23.77-1,.63-1.57.67-.88,0-1.76,0-2.64,0v.07Zm81.52-26.71h0c0,.68-.05,1.31-.09,1.93A12.87,12.87,0,0,1,152,24.44a.94.94,0,0,1-1.52-.34,3.35,3.35,0,0,1-.23-.71,14.91,14.91,0,0,1,.35-6.32,4.37,4.37,0,0,0,.15-1.1.47.47,0,0,0-.19-.3.56.56,0,0,0-.66,0,.85.85,0,0,0-.28.25,3.53,3.53,0,0,0-.71,1.71c-.11,1.12-.19,2.24-.28,3.37,0,.62-.09,1.24-.14,1.86a.43.43,0,0,1-.51.44,1.15,1.15,0,0,1-.67-.22,20,20,0,0,1-3.17-4.63,10.39,10.39,0,0,1-.41-1,5.46,5.46,0,0,1-.06-3.68A9.41,9.41,0,0,1,148,8.24a3.66,3.66,0,0,1,1.42-.44,8,8,0,0,1,1.87,0,5.22,5.22,0,0,1,4.41,4.49c.06.62.07,1.25.1,1.82ZM53.1,33.76h0c.11.35.33,1.07.52,1.79a.39.39,0,0,1-.14.32.37.37,0,0,1-.33,0,14.2,14.2,0,0,1-4.54-4.41,8.4,8.4,0,0,1-1-7.21,5.51,5.51,0,0,1,1.08-2A3.94,3.94,0,0,1,50.49,21a5,5,0,0,1,5.44,1.52,11.84,11.84,0,0,1,2.26,5.11,6.31,6.31,0,0,1,0,2.62,12.06,12.06,0,0,1-1.59,4.19c-.25.38-1.08.46-1.3.09a8.24,8.24,0,0,1-.75-1.29,13,13,0,0,1-.95-3.62,4.27,4.27,0,0,0-.3-1.06c0-.09-.17-.16-.28-.2-.3-.12-.52,0-.59.27a8.17,8.17,0,0,0,.68,5.11Zm62.73-11.28h0l-.15.71a1,1,0,0,1-.89.53,4.24,4.24,0,0,1-1.59-1c-.82-.77-1.6-1.58-2.43-2.33-.12-.11-.47,0-.66,0a.48.48,0,0,0-.21.65,5.34,5.34,0,0,0,1,1.55,31.86,31.86,0,0,1,2.38,2.37.54.54,0,0,1,0,.36.45.45,0,0,1-.49.42,11.48,11.48,0,0,1-4.51-1.74A15,15,0,0,1,103,18.92a4.2,4.2,0,0,1-.44-3.6,4.78,4.78,0,0,1,2.34-2.81,3.4,3.4,0,0,1,2.17-.4,7.81,7.81,0,0,1,3.15,1.14,13.1,13.1,0,0,1,4.34,4.58,8.39,8.39,0,0,1,1.25,4.66ZM12.43,26.71h0c1.11.12,2.25.14,3.34.37a21.81,21.81,0,0,1,4.63,1.48A1.74,1.74,0,0,1,21,29a1.49,1.49,0,0,1,.27.63c0,.07-.14.22-.25.26-.83.25-1.66.52-2.51.72a21.24,21.24,0,0,0-3.24.9c-.35.14-.69.28-1,.43a3.19,3.19,0,0,0-.3.22.73.73,0,0,0-.24,1,.59.59,0,0,0,.64.27c1-.24,1.85-.8,2.89-.66a.5.5,0,0,1,.3.21c.06.09.12.27.07.34a8.79,8.79,0,0,1-3,2.68,4.22,4.22,0,0,1-2.53.54,14.13,14.13,0,0,1-5.36-1.55A4,4,0,0,1,5,30.08a4.38,4.38,0,0,1,2.31-2.34,12.36,12.36,0,0,1,5.12-1ZM54.21,47.12h0a3.75,3.75,0,0,1,1-2.68,5.73,5.73,0,0,1,3.21-1.85c1-.18,2-.31,3-.44a2.27,2.27,0,0,1,.74.08.57.57,0,0,1,.31.21.56.56,0,0,1,0,.69c-.5.56-1,1.08-1.56,1.61a12.81,12.81,0,0,0-2.17,2.59,4.63,4.63,0,0,0-.38,1,.58.58,0,0,0,.25.67.52.52,0,0,0,.66,0c.41-.47.77-1,1.16-1.47a16.89,16.89,0,0,1,4.19-3.75A5.68,5.68,0,0,1,66.78,43c.46-.07,1.09.39,1.08.81a2.72,2.72,0,0,1,0,.37c-.2,1.11-.36,2.23-.62,3.33a16.31,16.31,0,0,1-.82,2.5,5.4,5.4,0,0,1-6.56,3,9.54,9.54,0,0,1-4.84-3.41,4,4,0,0,1-.85-2.51ZM135,33.39h0a16.38,16.38,0,0,1-.59,4.11,3.06,3.06,0,0,1-3.15,2.13A8.19,8.19,0,0,1,127.13,38a4.67,4.67,0,0,1-1.55-5.36,11,11,0,0,1,2.05-3.54,8.38,8.38,0,0,1,2.47-2.24.56.56,0,0,1,.66.15c.08.08.18.22.16.31-.17,1-.39,2-.54,2.94a10.36,10.36,0,0,0-.09,1.86,2,2,0,0,0,.57,1.34.54.54,0,0,0,.32.16c.29,0,.54-.13.56-.38.08-1,.1-2,.19-3a5,5,0,0,1,.85-2.45.61.61,0,0,1,.61-.29A.78.78,0,0,1,134,28a3.69,3.69,0,0,1,.33.66,18,18,0,0,1,.67,4.75Zm-51.25-.53h0a13.52,13.52,0,0,1-.68,4.24.57.57,0,0,1-.58.37c-.23,0-.55-.06-.67-.22A5.23,5.23,0,0,1,81.08,36c-.22-.58-.31-1.2-.5-1.8a5.9,5.9,0,0,0-.46-1,.46.46,0,0,0-.65-.21.63.63,0,0,0-.42.55,5.26,5.26,0,0,0,.1,1.1,8.45,8.45,0,0,1,.42,2.56.48.48,0,0,1-.23.28.64.64,0,0,1-.36.07.7.7,0,0,1-.34-.12,13.16,13.16,0,0,1-4.34-5,4.29,4.29,0,0,1,1.48-5.6,3.75,3.75,0,0,1,3.57-.42,6.36,6.36,0,0,1,4.17,4.89c.12.61.17,1.23.23,1.65Zm17.55,10.66h0a8.74,8.74,0,0,1-.62,4.07,3.19,3.19,0,0,1-3.49,2.22,6.88,6.88,0,0,1-1.47-.22,4,4,0,0,1-2.85-3.93,4.3,4.3,0,0,1,.16-1.1,15.4,15.4,0,0,1,2.37-4.63c.07-.09.22-.12.31-.2a.64.64,0,0,1,.9.31c.15.73.27,1.46.48,2.18.07.23.39.31.64.28a.51.51,0,0,0,.45-.48c0-.74,0-1.49.06-2.24a3.94,3.94,0,0,1,.69-2.1.94.94,0,0,1,.6-.3.63.63,0,0,1,.6.39,1.76,1.76,0,0,1,.18.32,18.41,18.41,0,0,1,1,5.45ZM33.71,35h0a1.09,1.09,0,0,1,1,.32.84.84,0,0,1-.21,1c-.76.83-1.53,1.64-2.26,2.49a1.16,1.16,0,0,0-.13.71.51.51,0,0,0,.43.5.48.48,0,0,0,.36,0c.65-.58,1.27-1.19,1.92-1.78s1.48-1.34,2.28-1.94a8.69,8.69,0,0,1,1.64-.88,1.82,1.82,0,0,1,.73-.07.71.71,0,0,1,.63.76,17.58,17.58,0,0,1-2.69,5.29,5.87,5.87,0,0,1-1.1,1,4.21,4.21,0,0,1-3.92.6,6.2,6.2,0,0,1-3.2-2.48,2.8,2.8,0,0,1-.46-1.78,3.23,3.23,0,0,1,1.47-2.49A6.11,6.11,0,0,1,33.71,35Z" style="fill:#703f0e;fill-rule:evenodd"/></svg>