<?xml version="1.0" encoding="utf-8"?>
<!-- Generator: Adobe Illustrator 20.0.0, SVG Export Plug-In . SVG Version: 6.00 Build 0)  -->
<svg version="1.1" id="圖層_1" xmlns="http://www.w3.org/2000/svg" xmlns:xlink="http://www.w3.org/1999/xlink" x="0px" y="0px"
	 viewBox="0 0 45 35" style="enable-background:new 0 0 45 35;" xml:space="preserve">
<style type="text/css">
	.st0{fill:#128683;}
</style>
<g>
	<path class="st0" d="M33.4,7.1c-0.5-0.5-1.4-0.5-1.9,0s-0.5,1.4,0,1.9l2.4,2.4H7.4c-0.7,0-1.4,0.6-1.4,1.4s0.6,1.4,1.4,1.4h26.4
		l-2.4,2.4c-0.5,0.5-0.5,1.4,0,1.9c0.3,0.3,0.6,0.4,1,0.4s0.7-0.1,1-0.4l4.7-4.7c0.5-0.5,0.5-1.4,0-1.9L33.4,7.1z"/>
	<path class="st0" d="M37.1,22.3H10.7l2.4-2.4c0.5-0.5,0.5-1.4,0-1.9s-1.4-0.5-1.9,0l-4.7,4.7c-0.5,0.5-0.5,1.4,0,1.9l4.7,4.7
		c0.3,0.3,0.6,0.4,1,0.4c0.3,0,0.7-0.1,1-0.4c0.5-0.5,0.5-1.4,0-1.9L10.7,25h26.4c0.7,0,1.4-0.6,1.4-1.4
		C38.5,22.9,37.9,22.3,37.1,22.3L37.1,22.3z"/>
</g>
</svg>
